<svg xmlns="http://www.w3.org/2000/svg" xmlns:xlink="http://www.w3.org/1999/xlink" width="1093.177" height="583.028" viewBox="0 0 1093.177 583.028"><defs><style>.a,.b,.bx,.ce,.cr,.da,.dm,.ee,.ek,.i,.j,.l,.p,.r,.z{fill:none;}.a{clip-rule:evenodd;}.c{clip-path:url(#a);}.d{clip-path:url(#b);}.e{fill:#cce2ff;}.f{clip-path:url(#c);}.g{clip-path:url(#d);}.h{fill:#ebf6ff;}.i,.r{stroke:#cce2ff;}.i,.j{stroke-linecap:square;}.i{stroke-width:8px;}.j{stroke:#ebf6ff;}.j,.l,.p{stroke-width:4.8px;}.k{clip-path:url(#e);}.l,.p,.z{stroke:#b6d3ff;}.m{clip-path:url(#g);}.n{clip-path:url(#h);}.o{fill:#dcedff;}.ee,.p{stroke-linecap:round;}.q{clip-path:url(#j);}.r{stroke-width:4.2px;}.s{clip-path:url(#m);}.t{clip-path:url(#o);}.u{clip-path:url(#q);}.v{clip-path:url(#s);}.w{clip-path:url(#u);}.x{clip-path:url(#w);}.y{clip-path:url(#y);}.dm,.z{stroke-width:5.4px;}.aa{clip-path:url(#aa);}.ab{clip-path:url(#ab);}.ac{fill:#d6ebff;}.ad{clip-path:url(#ac);}.ae{clip-path:url(#ae);}.af{clip-path:url(#ag);}.ag{clip-path:url(#ai);}.ah{clip-path:url(#ak);}.ai{clip-path:url(#am);}.aj{clip-path:url(#ao);}.ak{clip-path:url(#aq);}.al{clip-path:url(#as);}.am{clip-path:url(#au);}.an{clip-path:url(#av);}.ao{fill:#b6d3ff;}.ap{clip-path:url(#aw);}.aq{clip-path:url(#ay);}.ar{clip-path:url(#ba);}.as{clip-path:url(#bc);}.at{clip-path:url(#be);}.au{clip-path:url(#bg);}.av{clip-path:url(#bi);}.aw{clip-path:url(#bk);}.ax{clip-path:url(#bm);}.ay{clip-path:url(#bo);}.az{clip-path:url(#bq);}.ba{clip-path:url(#bs);}.bb{fill:#fff;}.bc{fill:#ffd28a;}.bd{fill:#883498;}.be{fill:#f6b751;}.bf{fill:#712181;}.bg{clip-path:url(#bu);}.bh{clip-path:url(#bv);}.bi{clip-path:url(#bw);}.bj{clip-path:url(#bx);}.bk{fill:rgba(0,0,0,0.4);}.bl{clip-path:url(#by);}.bm{fill:#18131e;}.bn{clip-path:url(#ca);}.bo{fill:#ed4747;}.bp{clip-path:url(#cc);}.bq{fill:#405fd2;}.br{clip-path:url(#ce);}.bs{fill:#0d0a6c;}.bt{clip-path:url(#cg);}.bu{clip-path:url(#ci);}.bv{fill:#2e2e3d;}.bw{clip-path:url(#ck);}.bx{stroke:#242435;}.bx,.ce,.cr{stroke-width:1.5px;}.by{clip-path:url(#cn);}.bz{clip-path:url(#co);}.ca{clip-path:url(#cp);}.cb{fill:#71a064;}.cc{clip-path:url(#cr);}.cd{fill:rgba(0,0,0,0.2);}.ce{stroke:rgba(0,0,0,0.2);}.cf{clip-path:url(#cu);}.cg{clip-path:url(#cv);}.ch{fill:#2437a7;}.ci{clip-path:url(#cw);}.cj{clip-path:url(#cy);}.ck{fill:#19131e;}.cl{clip-path:url(#da);}.cm{fill:rgba(255,255,255,0.1);}.cn{clip-path:url(#dc);}.co{clip-path:url(#dd);}.cp{fill:#cf3d83;}.cq{clip-path:url(#de);}.cr{stroke:rgba(0,0,0,0.15);}.cs{clip-path:url(#dg);}.ct{clip-path:url(#dh);}.cu{fill:#0c0a6d;}.cv{clip-path:url(#dj);}.cw{fill:#a37ef1;}.cx{clip-path:url(#dl);}.cy{clip-path:url(#dn);}.cz{clip-path:url(#dp);}.da{stroke:#1c295e;}.db{clip-path:url(#ds);}.dc{clip-path:url(#du);}.dd{clip-path:url(#dw);}.de{fill:#2b2b38;}.df{clip-path:url(#dy);}.dg{clip-path:url(#ea);}.dh{fill:#cd3d28;}.di{clip-path:url(#ec);}.dj{clip-path:url(#ee);}.dk{clip-path:url(#eg);}.dl{clip-path:url(#ei);}.dm{stroke:#dcedff;}.dn{clip-path:url(#ek);}.do{clip-path:url(#em);}.dp{clip-path:url(#eo);}.dq{clip-path:url(#eq);}.dr{clip-path:url(#er);}.ds{fill:#b5b8bb;}.dt{clip-path:url(#es);}.du{fill:#d6dadd;}.dv{clip-path:url(#eu);}.dw{clip-path:url(#ew);}.dx{clip-path:url(#ey);}.dy{clip-path:url(#fa);}.dz{clip-path:url(#fc);}.ea{clip-path:url(#fe);}.eb{fill:#6ba0ff;}.ec{clip-path:url(#fg);}.ed{clip-path:url(#fi);}.ee,.ek{stroke:#18131e;}.ee{stroke-width:5px;}.ef{clip-path:url(#fj);}.eg{clip-path:url(#fm);}.eh{clip-path:url(#fo);}.ei{clip-path:url(#fq);}.ej{clip-path:url(#fs);}.ek{stroke-width:2px;}.el{clip-path:url(#ft);}.em{clip-path:url(#fv);}.en{clip-path:url(#fx);}.eo{clip-path:url(#fz);}.ep{clip-path:url(#gb);}.eq{clip-path:url(#gd);}.er{clip-path:url(#gf);}.es{clip-path:url(#gh);}.et{clip-path:url(#gj);}</style><clipPath id="a"><path class="a" d="M293.551-919.289c-2.331-6.987-15.107-5.8-15.109-25.288,0-29.336,40.351-25.988,42.73-48.092s-23.551-21.575-24.354-40.219S315.734-1090,345.65-1090c23.589,0,4.052,29.683,23.089,42.957s40.781-3.731,51.542,17.142c14.823,28.752-23.08,63.283-19.341,85.325s25.959,16.83,26.64,41.049-31.6,28.481-28.557,49.248c1.917,13.091,22.344,8.72,23.415,34.534.908,21.855-69.276,48.9-122,4.425s2.007-77.3-6.89-103.967" transform="translate(-277.2 1090)"/></clipPath><clipPath id="b"><path class="b" d="M-1149-713.981H869.452V-1836H-1149Z" transform="translate(1149 1836)"/></clipPath><clipPath id="c"><path class="a" d="M666.341-870.557c0,52.19-34.105,75.611-76.01,75.611s-76.006-23.421-76.006-75.611c0-97.217,41.481-188,76.006-188s76.01,90.787,76.01,188" transform="translate(-514.326 1058.561)"/></clipPath><clipPath id="d"><path class="b" d="M250-750.216H685.595V-1080H250Z" transform="translate(-250 1080)"/></clipPath><clipPath id="e"><path class="a" d="M176.3-829.183a87.683,87.683,0,0,1-87.549,87.817A87.683,87.683,0,0,1,1.2-829.183,87.683,87.683,0,0,1,88.749-917,87.683,87.683,0,0,1,176.3-829.183" transform="translate(-1.2 917)"/></clipPath><clipPath id="g"><path class="a" d="M297.116-485.542l-3,43.42H267.795l-3-43.42a2.351,2.351,0,0,1,2.346-2.514H294.77a2.352,2.352,0,0,1,2.346,2.514" transform="translate(-264.792 488.056)"/></clipPath><clipPath id="h"><path class="b" d="M153-442.522H305.539V-558H153Z" transform="translate(-153 558)"/></clipPath><clipPath id="j"><path class="a" d="M297.18-487.158H262.5V-489a3.014,3.014,0,0,1,3.014-3.014h28.652A3.014,3.014,0,0,1,297.18-489Z" transform="translate(-262.5 492.013)"/></clipPath><clipPath id="m"><path class="a" d="M283.011-493.506h1.4v-3.11h-1.4Z" transform="translate(-283.011 496.616)"/></clipPath><clipPath id="o"><path class="a" d="M303.236-494.047h1.4v-3.11h-1.4Z" transform="translate(-303.236 497.157)"/></clipPath><clipPath id="q"><path class="a" d="M283.011-497.177h12.264V-498.9H283.011Z" transform="translate(-283.011 498.9)"/></clipPath><clipPath id="s"><path class="a" d="M1265.513-446.28s17.785.463,20.493,59.759c0,0-7.59-44.754-20.493-59.759" transform="translate(-1265.513 446.28)"/></clipPath><clipPath id="u"><path class="a" d="M1299.326-557.4s10.382,62.737.163,126.575c0,0,.607-66.675-.163-126.575" transform="translate(-1299.326 557.4)"/></clipPath><clipPath id="w"><path class="a" d="M1323.987-524.311s-24.709,54.537-27.659,113.834c0,0,13.829-60.09,27.659-113.834" transform="translate(-1296.328 524.311)"/></clipPath><clipPath id="y"><path class="a" d="M1290.5-321.01h-25.677q-.289,0-.576-.011c-11.708-.438-18.222-15.247-11.591-25.931l5.882-9.477h38.248l5.882,9.477c6.631,10.684.118,25.494-11.591,25.931-.191.007-.383.011-.576.011" transform="translate(-1250 356.429)"/></clipPath><clipPath id="aa"><path class="a" d="M1996.408-804.315h-3.339a2.909,2.909,0,0,0-2.909,2.909v240.864h9.156V-801.405a2.909,2.909,0,0,0-2.908-2.909" transform="translate(-1990.16 804.315)"/></clipPath><clipPath id="ab"><path class="b" d="M1691-483.257h330.859V-921H1691Z" transform="translate(-1691 921)"/></clipPath><clipPath id="ac"><path class="a" d="M1985.048-330.61H1999.7v-24.841h-14.649Z" transform="translate(-1985.048 355.451)"/></clipPath><clipPath id="ae"><path class="a" d="M1977.645-261.81h22.6v-72.6h-22.6Z" transform="translate(-1977.645 334.41)"/></clipPath><clipPath id="ag"><path class="a" d="M1994.045-217.148H1975.2a6.9,6.9,0,0,0-6.895,6.9v3.03h32.63v-3.03a6.9,6.9,0,0,0-6.894-6.9" transform="translate(-1968.309 217.148)"/></clipPath><clipPath id="ai"><path class="a" d="M1997.323-335.681h-22.6a3.392,3.392,0,0,0-3.392,3.392v.418a3.392,3.392,0,0,0,3.392,3.392h22.6a3.391,3.391,0,0,0,3.391-3.392v-.418a3.391,3.391,0,0,0-3.391-3.392" transform="translate(-1971.334 335.681)"/></clipPath><clipPath id="ak"><path class="a" d="M1993.431-828.416h0a6.1,6.1,0,0,0-6.1,6.1v.751a6.1,6.1,0,0,0,6.1,6.1,6.1,6.1,0,0,0,6.1-6.1v-.751a6.1,6.1,0,0,0-6.1-6.1" transform="translate(-1987.336 828.416)"/></clipPath><clipPath id="am"><path class="a" d="M1997.008-696.041h-18.023a3.392,3.392,0,0,0-3.391,3.392v.418a3.391,3.391,0,0,0,3.391,3.392h18.023a3.391,3.391,0,0,0,3.391-3.392v-.418a3.391,3.391,0,0,0-3.391-3.392" transform="translate(-1975.593 696.041)"/></clipPath><clipPath id="ao"><path class="a" d="M1997.671-682.633h-13.1a2.227,2.227,0,0,0-2.227,2.227v.275a2.227,2.227,0,0,0,2.227,2.227h13.1a2.226,2.226,0,0,0,2.226-2.227v-.275a2.226,2.226,0,0,0-2.226-2.227" transform="translate(-1982.342 682.633)"/></clipPath><clipPath id="aq"><path class="a" d="M2001.076-784.886l-9.9,47.719h-14.811l-9.9-47.719Z" transform="translate(-1966.463 784.886)"/></clipPath><clipPath id="as"><path class="a" d="M2001.492-787.539l-4.34-8.541h-31.944l-4.34,8.541Z" transform="translate(-1960.867 796.08)"/></clipPath><clipPath id="au"><path class="a" d="M1578.574-508.762h3.557v-241.3h-3.557Z" transform="translate(-1578.574 750.063)"/></clipPath><clipPath id="av"><path class="b" d="M1232-560.6h266.406V-921H1232Z" transform="translate(-1232 921)"/></clipPath><clipPath id="aw"><path class="a" d="M1374.764-508.762h109.468v-241.3H1374.764Z" transform="translate(-1374.764 750.063)"/></clipPath><clipPath id="ay"><path class="a" d="M1398.989-499.587h87.088V-730.243h-87.088Z" transform="translate(-1398.989 730.243)"/></clipPath><clipPath id="ba"><path class="a" d="M1457.872-393.906h23.836V-449.13h-23.836Z" transform="translate(-1457.872 449.13)"/></clipPath><clipPath id="bc"><path class="a" d="M1457.872-632.865h23.836v-55.224h-23.836Z" transform="translate(-1457.872 688.089)"/></clipPath><clipPath id="be"><path class="a" d="M1457.872-513.386h23.836V-568.61h-23.836Z" transform="translate(-1457.872 568.61)"/></clipPath><clipPath id="bg"><path class="a" d="M1392.367-499.587h3.556V-730.243h-3.556Z" transform="translate(-1392.367 730.243)"/></clipPath><clipPath id="bi"><path class="a" d="M1409.4-529.551h0a3.774,3.774,0,0,1-3.731-3.816v-17.415a3.774,3.774,0,0,1,3.731-3.816,3.774,3.774,0,0,1,3.731,3.816v17.415a3.774,3.774,0,0,1-3.731,3.816" transform="translate(-1405.669 554.598)"/></clipPath><clipPath id="bk"><path class="a" d="M1491.289-813.64c0-30.773-24.392-55.72-54.482-55.72s-54.482,24.947-54.482,55.72Z" transform="translate(-1382.326 869.36)"/></clipPath><clipPath id="bm"><path class="a" d="M1483.727-814.284c0-30.773-24.392-55.72-54.482-55.72s-54.481,24.947-54.481,55.72Z" transform="translate(-1374.764 870.004)"/></clipPath><clipPath id="bo"><path class="a" d="M1483.727-813.64c0-30.773-24.392-55.72-54.482-55.72s-54.481,24.947-54.481,55.72Z" transform="translate(-1374.764 869.36)"/></clipPath><clipPath id="bq"><path class="a" d="M1477.668-814.53h-85.132c4.41-20.942,21.792-36.571,42.566-36.571s38.156,15.629,42.566,36.571" transform="translate(-1392.536 851.101)"/></clipPath><clipPath id="bs"><path class="a" d="M1485.859-814.53h-85.132c4.41-20.942,21.793-36.571,42.566-36.571s38.156,15.629,42.566,36.571" transform="translate(-1400.727 851.101)"/></clipPath><clipPath id="bu"><path class="a" d="M1758.107-1076.331H1569s17.815-25.983,32.462-26.389c17.48-.485,25.35,18.736,42.136,18.736S1671.628-1131,1702.7-1131c33.173,0,55.4,54.668,55.4,54.668" transform="translate(-1569 1130.999)"/></clipPath><clipPath id="bv"><path class="b" d="M1245-1067.012h537.108V-1255H1245Z" transform="translate(-1245 1255)"/></clipPath><clipPath id="bw"><path class="a" d="M1098.948-428.384l6.931-1.494-6.9,4.683Z" transform="translate(-1098.948 429.877)"/></clipPath><clipPath id="bx"><path class="b" d="M1047.847-457.8h58.2v-55.353h-58.2Z" transform="translate(-1047.847 513.155)"/></clipPath><clipPath id="by"><path class="a" d="M1072.7-472.242c0,4.088,2.621,7.4,5.854,7.4s5.854-3.314,5.854-7.4-2.621-7.4-5.854-7.4-5.854,3.314-5.854,7.4" transform="translate(-1072.699 479.644)"/></clipPath><clipPath id="ca"><path class="b" d="M1087.041-439.967l.245-8.5s-10.278.823-12.477-.325c0,0-2.688-13.917.518-21.623l.065-.3,21.691-2.55,1.216,12.51c.73-2.166,6.761-4.622,8.337-1.52,3.416,6.721-8.8,11.247-8.8,11.247l1.24,11.166" transform="translate(-1073.754 473.267)"/></clipPath><clipPath id="cc"><path class="a" d="M1086.569-450.271l-2.4,5.885,2.87.037Z" transform="translate(-1084.174 450.271)"/></clipPath><clipPath id="ce"><path class="a" d="M1093.368-450.882a1.458,1.458,0,0,0,1.169,1.694,1.451,1.451,0,0,0,1.686-1.175,1.458,1.458,0,0,0-1.169-1.695,1.452,1.452,0,0,0-1.686,1.175" transform="translate(-1094.344 452.081)"/></clipPath><clipPath id="cg"><path class="a" d="M1078.384-450.882a1.457,1.457,0,0,0,1.169,1.694,1.452,1.452,0,0,0,1.686-1.175,1.458,1.458,0,0,0-1.169-1.695,1.451,1.451,0,0,0-1.686,1.175" transform="translate(-1079.36 452.081)"/></clipPath><clipPath id="ci"><path class="b" d="M1092.636-466.026a10.138,10.138,0,0,1,6.368-4.933,30.1,30.1,0,0,0,1.224-5.251c.765-5.109-2.931-9.769-5.915-11.108a20.435,20.435,0,0,0-15.858-.684c-5.127,1.714-8.4-2.39-11.421-.637-5.155,3-.36,16.111,12.712,12.779,9.351-2.383,9.591-1.786,9.671-.053.259,5.6,1.128,8.894,3.219,9.886Z" transform="translate(-1065.001 489.264)"/></clipPath><clipPath id="ck"><path class="a" d="M1093.545-438.838a3.387,3.387,0,0,1-2.913,1.643" transform="translate(-1090.632 438.838)"/></clipPath><clipPath id="cn"><path class="b" d="M1000.8-418.873l.143-2.467a34.271,34.271,0,0,0-.227-3.57c-.223-1.853-1.512-4.045-.149-7.317s-1.9-1.012-2.618.543c-.6,1.3-.284,4.022-1.023,5.02a4.572,4.572,0,0,1-1.04-.779l-7.027-9.045a.77.77,0,0,0-.98-.216l-.378.2a.754.754,0,0,0-.269,1.092c1.372,2,5.623,7.86,5.508,7.919l-.186.225L984.3-435.9a.77.77,0,0,0-1.008-.119l-.5.341a.748.748,0,0,0-.169,1.083c1.641,2.1,7.8,8.781,7.683,8.846l-.246.236-7.683-6.734a.771.771,0,0,0-1.051-.082l-.375.3a.752.752,0,0,0-.109,1.069l7.256,6.771-.209.327-6.3-4.392a.773.773,0,0,0-1.017,0l-.175.156a.754.754,0,0,0-.074,1.057c.922,1.083,3.787,2.9,6.039,5.134,1.747,1.737,2.6,3.383,5.045,5.333a15.441,15.441,0,0,0,2.827,1.717Zm56.635-5.661s-4.854-.009-8.358-.021a30.045,30.045,0,0,0-7.909,1.458s-2.292,5.138,5.671,4.673S1057.435-424.534,1057.435-424.534Zm34.148,38.9c.176-6.472-7.6-18.11-7.6-18.11l-13.6,6.04,5.6,11.9L1060.591-364.4l6.336,5.149S1091.375-378,1091.583-385.631Z" transform="translate(-980.148 436.796)"/></clipPath><clipPath id="co"><path class="b" d="M977.518-339.569h112.9V-436.8h-112.9Z" transform="translate(-977.518 436.796)"/></clipPath><clipPath id="cp"><path class="b" d="M1070.43-363.176l-3.785,5.066,11.4,9.913s20.919-15.3,21.565-27.289c.411-7.639-6.287-18.543-6.287-18.543s-8.408-13.406-18.127-17.93c-1.995-.928-6.831-1.7-9.762-2.022-.9-.1-.361.251-.67.842a13.267,13.267,0,0,1-1.982,2.217,12.015,12.015,0,0,1-5.692,2.722,21.364,21.364,0,0,1-4.4.287,6.038,6.038,0,0,1-2.519-.9,3.619,3.619,0,0,1-1-1.184c-.237-.546-.225-.39-.225-.894a1.779,1.779,0,0,1,.076-.669c.049-.24.049-.384.078-.508.13-.548.071-.474.071-.474-5.737,1.729-8.644,2.369-10.734,4.883l-15.974,11.183L1011.528-410.7l-14.1,9.446s12.486,23.207,21.536,25.773c7.29,2.067,14.674-4.361,17.271-6.939l-3.085,15.623c-.494,2.7,1.873,3.718,3.983,3.623Z" transform="translate(-997.426 413.997)"/></clipPath><clipPath id="cr"><path class="a" d="M1066.969-361.684l1.909-7.527-5.155,10.286Z" transform="translate(-1063.723 369.211)"/></clipPath><clipPath id="cu"><path class="b" d="M962.694-176.191l.082,7.542s-15.814,2.663-21.175,9.12h31.507l-1.32-21.56Zm50.449-1.727.087,8.97s-7.054.985-9.925,9.347h22.836l-2.284-9.843-.893-8.973Z" transform="translate(-941.601 181.09)"/></clipPath><clipPath id="cv"><path class="b" d="M941.082-212.547h170.6V-417.039h-170.6Z" transform="translate(-941.082 417.039)"/></clipPath><clipPath id="cw"><path class="b" d="M989.966-179.047l-9.094,2.922.082,7.542,9.745-.468Zm50.985-1.9-9.63,3.094.086,8.97,10.628-.5Z" transform="translate(-980.872 180.947)"/></clipPath><clipPath id="cy"><path class="b" d="M1009.4-296.643l6.16,59.493h16.565l-2.8-59.493h11.747a16.023,16.023,0,0,0,16.11-15.935v-7.082H975.6A19.132,19.132,0,0,0,956.6-298.173l7.957,61.023H981.4l-.776-59.493Z" transform="translate(-956.448 319.66)"/></clipPath><clipPath id="da"><path class="a" d="M1101.933-319.66h-36.162a12.555,12.555,0,0,0-12.579,13.728l7.122,68.782h16.565l-2.8-59.493h11.747a16.023,16.023,0,0,0,16.11-15.935Z" transform="translate(-1053.13 319.66)"/></clipPath><clipPath id="dc"><path class="a" d="M1214.092-417.91s3.5.1,4.99-.711l-4.8,3.015Z" transform="translate(-1214.092 418.62)"/></clipPath><clipPath id="dd"><path class="b" d="M1162.084-436.355h72.8v-75.56h-72.8Z" transform="translate(-1162.084 511.915)"/></clipPath><clipPath id="de"><path class="b" d="M1135.376-326.328h83.634v-95.33h-83.634Z" transform="translate(-1135.376 421.659)"/></clipPath><clipPath id="dg"><path class="b" d="M1048.2-192.315h156.983V-362.664H1048.2Z" transform="translate(-1048.198 362.664)"/></clipPath><clipPath id="dh"><path class="b" d="M1205.213-453.674a5.911,5.911,0,0,0-.084.995v.026a14.734,14.734,0,0,0-3.837,12.112A14.8,14.8,0,0,0,1217.961-428l14.085-1.986a14.791,14.791,0,0,0,12.547-16.662,14.792,14.792,0,0,0-9.837-11.885,10.509,10.509,0,0,0,1.666-7.3,10.6,10.6,0,0,0-9.311-9.021,9.274,9.274,0,0,0,.309-4h0a9.406,9.406,0,0,0-10.6-7.974,9.3,9.3,0,0,0-3.556,1.273,20.454,20.454,0,0,0-10.219-2.687c-10.552,0-19.105,7.764-19.105,17.342s8.553,17.342,19.105,17.342a21.256,21.256,0,0,0,2.167-.11Z" transform="translate(-1183.941 488.248)"/></clipPath><clipPath id="dj"><path class="b" d="M1211.119-442.214c1.826-1.594,4.826-2.375,4.83-5.129a2.535,2.535,0,0,0-2.654-2.646c-2.648,0-2.439,2.99-2.407,3.324l0,.017h0l0,.013a1.424,1.424,0,0,1-.9.047c-2.147.024-7.6-.626-10.642-7.41a11.4,11.4,0,0,1-2.146,1.764,12.142,12.142,0,0,1-7.9,1.769c.175,3.426,1.181,12.123,5.519,15.008,1.784,1.186,5.031,1.332,7.8,1.172l.634,7.855s8.45-3.682,8.8-4.686a5.892,5.892,0,0,1-4.439-5.709,5.891,5.891,0,0,1,3.51-5.388Z" transform="translate(-1189.298 453.999)"/></clipPath><clipPath id="dl"><path class="a" d="M1198.206-440.3l-2,4.852,2.323-.047Z" transform="translate(-1196.204 440.301)"/></clipPath><clipPath id="dn"><path class="a" d="M1203.9-441.481c.05.969.62,1.725,1.274,1.687s1.143-.854,1.094-1.823-.62-1.725-1.274-1.687-1.143.854-1.094,1.823" transform="translate(-1203.894 443.306)"/></clipPath><clipPath id="dp"><path class="a" d="M1192.469-441.77c.05.969.62,1.725,1.273,1.687s1.144-.854,1.094-1.823-.62-1.725-1.274-1.687-1.143.854-1.093,1.824" transform="translate(-1192.465 443.595)"/></clipPath><clipPath id="ds"><path class="a" d="M1214.1-417.91s3.5.1,4.99-.711l-4.8,3.015Z" transform="translate(-1214.103 418.621)"/></clipPath><clipPath id="du"><path class="b" d="M1165.056-351.944a53.275,53.275,0,0,0-3.4,4.233,26.574,26.574,0,0,0-1.2,5.933c.039.837,2.553,4.6,2.553,4.6,1.56-.382.541-2.326.541-2.326s1.4,1.181,1.978,1.161c5.47-.186,5.177-2.954,5.048-3.3-.291-.778-1.751.112-1.751.112s2.807-5.692,2.131-9.675l.158.02,8.614-13.713.6-5.344,23.466-.346a23.731,23.731,0,0,1,.3-5.342c.652-4.129,4.625-11.8,4.625-11.8l6.141,9.275,4.467,24.2-.071-.045-2.034,6.5s-.2,2.717-.24,4.316-.017,1.217-.914,3.685c-.625,1.72,1.85,1.018,2.479.035.648-1.014.656-4.955,1.942-4.281s2.019,4.579,2.094,8.318c.012.587.489.758.813.9.526.231,1.044-1.859,1.044-1.859a.769.769,0,0,0,1.1.383,7.982,7.982,0,0,0,.967-1.776,6.792,6.792,0,0,0,.842-1.714,15.8,15.8,0,0,0,.5-5.251,32.271,32.271,0,0,0-2.378-6.956c.018-.392.905-20.061-3.157-31.577-3.589-10.174-9.057-21.223-14.171-24.442-5.26-3.311-10-2.436-14.4-2.207-7.606.4-11.368.319-14.768,3.438-7.093,6.506-4.639,32.212-4.639,32.212l-9.389,22.619.109.014Z" transform="translate(-1160.455 410.504)"/></clipPath><clipPath id="dw"><path class="b" d="M1229.095-410.464l-.81.024v.012c0,.069,0,.15-.007.224a.788.788,0,0,1-.011.087c-.1.519-.567,4.244-1.417,11.255l.805.1c.842-6.951,1.315-10.711,1.408-11.2a1.687,1.687,0,0,0,.022-.169c.009-.106.011-.212.009-.306C1229.095-410.459,1229.095-410.459,1229.095-410.464Z" transform="translate(-1226.85 410.464)"/></clipPath><clipPath id="dy"><path class="b" d="M1198.816-404.732a43.116,43.116,0,0,0-3.38,5.176c-.345.617-.647,1.191-.9,1.706-.09.181-.168.342-.234.48-.04.084-.067.143-.082.174l.729.345c.012-.027.037-.081.075-.161.064-.134.14-.29.228-.466.251-.5.547-1.066.886-1.672a42.3,42.3,0,0,1,3.314-5.076,26.034,26.034,0,0,1,4.287-4.5l1.023-.82-1.3.088a.554.554,0,0,0-.409.239A27.146,27.146,0,0,0,1198.816-404.732Z" transform="translate(-1194.217 409.545)"/></clipPath><clipPath id="ea"><path class="b" d="M1194.458-360.884l23.315-.343a21.621,21.621,0,0,1,.3-5.342c.572-3.391,3.147-8.372,3.576-9.669,0,0-.4,1.263-1.859-.423-2.093-2.414-9.288-13.621-9.288-13.621s-6.79,6.857-12.239,6.647c-3.756-.145-5.1-5.955-5.1-5.955-6.019,13.072.624,11.447,1.3,28.707" transform="translate(-1190.657 390.282)"/></clipPath><clipPath id="ec"><path class="b" d="M1084.439-176.409l-17.5,7.377c-4.755,4.351-8.93,5.94-3.213,8.2,6.811,2.7,16.866-6.486,16.866-6.486C1087.789-167.764,1084.439-176.409,1084.439-176.409Zm44.3-2.264-5.007-.821s-4.046,11.45-5.055,19.981c-.619,5.229-2.3,9.868,2.436,9.234,6.7-.9,8.238-14.222,8.987-14.747.792-.555,2.037-7.611,1.942-8.355S1128.74-178.673,1128.74-178.673Z" transform="translate(-1060.958 179.494)"/></clipPath><clipPath id="ee"><path class="b" d="M1111.381-314.526a10.339,10.339,0,0,0-11.11,7.645c-6.325,23.691-15.7,59.756-16.945,64.981l-11.234,9.529a5.732,5.732,0,0,0,4.179,2.088c2.985.3,13.387-8.992,13.387-8.992l-.085-.061,22.778-47.246c6.7,21.565,14.057,45.137,15.1,48.163-1.3,5.154-2.9,13.241-.205,13.542,3.96.443,7.364-12.834,7.364-12.834l-.039-.032-6.451-56.28,13.4-3.9-5.777-11.865-14.744-5.8A10.206,10.206,0,0,0,1111.381-314.526Z" transform="translate(-1072.092 316.327)"/></clipPath><clipPath id="eg"><path class="b" d="M1189.788-337s12.174,12.621,8.533,23.32c-3.9,11.47-41.352,9.919-41.352,9.919s-7.3-17.37-26.319-18.476l35.877-14.39Z" transform="translate(-1130.65 337.002)"/></clipPath><clipPath id="ei"><path class="a" d="M1666.061-540.168c0,9.848-5.988,17.832-13.374,17.832s-13.374-7.984-13.374-17.832S1645.3-558,1652.687-558s13.374,7.983,13.374,17.832" transform="translate(-1639.313 558)"/></clipPath><clipPath id="ek"><path class="a" d="M1617.872-480.958c6.315,6.316,7.6,15.275,2.859,20.012s-13.7,3.457-20.012-2.859-7.595-15.275-2.858-20.012,13.7-3.457,20.012,2.859" transform="translate(-1595 486.677)"/></clipPath><clipPath id="em"><path class="a" d="M1675.759-427.282c4.246,3.969,15.369,3.074,21.516-3.073s9.972-14.371,4.678-20.169-16.01-1.02-21.661,4.292S1671.513-431.251,1675.759-427.282Z" transform="translate(-1675.759 451.871)"/></clipPath><clipPath id="eo"><path class="a" d="M1648.127-324.621h-14.343a20.089,20.089,0,0,1-20.03-20.03V-363.5h54.4v18.848a20.089,20.089,0,0,1-20.03,20.03" transform="translate(-1613.754 363.499)"/></clipPath><clipPath id="eq"><path class="a" d="M1753.819-397.085c-.614-16.441-10.293-23.465-25.054-23.854-9.744-27.548-31.094.558-32.63-21.233-1.806-25.625-2.325-65.926-2.325-65.926l-12.587.217s-1.051,26.269-3.232,59.21c-1.547,23.333-17.3,1.694-38,15.834-10.447,7.138-9.981,24.407-9.981,24.407s-9.013.471-9.013,11.343Z" transform="translate(-1621 508.098)"/></clipPath><clipPath id="er"><path class="b" d="M1766.816-409.915H1621V-545h145.816Z" transform="translate(-1621 545)"/></clipPath><clipPath id="es"><path class="a" d="M1674.263-341.073a16.614,16.614,0,0,0-14.594-13.338,16.875,16.875,0,0,0-4.191.107,16.861,16.861,0,0,0-2.383.543,16.442,16.442,0,0,0-5.659,3.046,16.623,16.623,0,0,0-5.751,9.642Z" transform="translate(-1641.685 354.494)"/></clipPath><clipPath id="eu"><path class="a" d="M1797.7-337.645a9.511,9.511,0,0,0-6.051-7.1,8.317,8.317,0,0,0-2.253-.436,8.16,8.16,0,0,0-1.335.035,9.483,9.483,0,0,0-7.991,7.505Z" transform="translate(-1780.07 345.198)"/></clipPath><clipPath id="ew"><path class="a" d="M1733.093-349.52a25.383,25.383,0,0,0-.167-6.366,25.78,25.78,0,0,0-.72-3.276,25.326,25.326,0,0,0-28.118-17.946,25.246,25.246,0,0,0-8.316,2.8,25.314,25.314,0,0,0-13.057,24.789Z" transform="translate(-1682.581 377.4)"/></clipPath><clipPath id="ey"><path class="a" d="M1689.275-408.088a4.972,4.972,0,0,0,4.168-5.664,4.972,4.972,0,0,0-5.664-4.168,4.973,4.973,0,0,0-4.168,5.664A4.973,4.973,0,0,0,1689.275-408.088Z" transform="translate(-1683.554 417.977)"/></clipPath><clipPath id="fa"><path class="a" d="M1752.312-407.079a2.052,2.052,0,0,0,1.72-2.338,2.052,2.052,0,0,0-2.337-1.72,2.052,2.052,0,0,0-1.72,2.338A2.052,2.052,0,0,0,1752.312-407.079Z" transform="translate(-1749.951 411.161)"/></clipPath><clipPath id="fc"><path class="a" d="M1840.469-352.579a4.736,4.736,0,0,0,3.97-5.395,4.736,4.736,0,0,0-5.395-3.97,4.736,4.736,0,0,0-3.97,5.395A4.737,4.737,0,0,0,1840.469-352.579Z" transform="translate(-1835.02 361.998)"/></clipPath><clipPath id="fe"><path class="b" d="M1707.834-503.881h16.7l6.313-13.306h-29.329Zm-6.684-13.306h30.073a3.157,3.157,0,0,0,3.156-3.156,3.156,3.156,0,0,0-3.156-3.156H1701.15a3.156,3.156,0,0,0-3.156,3.156A3.156,3.156,0,0,0,1701.15-517.187Z" transform="translate(-1697.994 523.5)"/></clipPath><clipPath id="fg"><path class="a" d="M1709.812-500.194h16.7l6.313-13.306H1703.5Z" transform="translate(-1703.5 513.5)"/></clipPath><clipPath id="fi"><path class="b" d="M1757.035-471.553H1627V-618h130.035Z" transform="translate(-1627 618)"/></clipPath><clipPath id="fj"><path class="a" d="M1685.8-526.985h45.8l6.984-7.535H1678.82Z" transform="translate(-1678.82 534.519)"/></clipPath><clipPath id="fm"><path class="b" d="M1665.109-492.362a16.545,16.545,0,0,1-14.738-9.724l-14-31.114a16.592,16.592,0,0,1,8.257-21.861,16.527,16.527,0,0,1,21.814,8.275l14,31.115a16.578,16.578,0,0,1-1.065,15.549,11.771,11.771,0,0,1,7.805,6.913,12.042,12.042,0,0,1,.418,1.218,1.982,1.982,0,0,1-3.118,2.119,5.741,5.741,0,0,0-5.451-1.212c-3.348,1.221-4.608,6.215-2.814,11.155l.011.031a1.989,1.989,0,0,1-2.24,2.661,11.748,11.748,0,0,1-8.727-7.519,11.739,11.739,0,0,1-.151-7.606Zm74.219-98.766v15.215a12.578,12.578,0,0,1-12.527,12.555h-58.867a12.578,12.578,0,0,1-12.527-12.555v-16.4a12.59,12.59,0,0,1-12-12.588,12.588,12.588,0,0,1,12.574-12.6,12.5,12.5,0,0,1,6.6,1.874,12.388,12.388,0,0,1,5.352-1.211H1726.8a12.4,12.4,0,0,1,5.882,1.48q.4-.144.815-.264a12.57,12.57,0,0,1,15.547,8.651,12.605,12.605,0,0,1-8.633,15.58q-.541.155-1.084.26Zm1.834,86.784a9.628,9.628,0,0,1,.965,6.677,9.612,9.612,0,0,1-6.241,7.061,1.626,1.626,0,0,1-2.106-1.912c0-.009,0-.018.006-.027.909-4.2-.661-8.115-3.507-8.737A4.687,4.687,0,0,0,1726-499.7a1.62,1.62,0,0,1-2.759-1.375,10.031,10.031,0,0,1,.2-1.034,9.576,9.576,0,0,1,3.77-5.466,13.574,13.574,0,0,1-3.755-11.852l4.735-27.527a13.517,13.517,0,0,1,15.576-11.022,13.572,13.572,0,0,1,10.992,15.638l-4.735,27.526a13.539,13.539,0,0,1-8.865,10.465Z" transform="translate(-1634.925 617.499)"/></clipPath><clipPath id="fo"><path class="a" d="M1735.229-504.344a9.628,9.628,0,0,1,.965,6.677,9.612,9.612,0,0,1-6.241,7.061,1.626,1.626,0,0,1-2.106-1.912l.006-.027c.909-4.2-.661-8.115-3.507-8.737a4.687,4.687,0,0,0-4.28,1.584,1.62,1.62,0,0,1-2.759-1.375,9.869,9.869,0,0,1,.2-1.034,9.572,9.572,0,0,1,3.77-5.466,13.572,13.572,0,0,1-3.755-11.852l4.734-27.527a13.517,13.517,0,0,1,15.577-11.022,13.572,13.572,0,0,1,10.991,15.638l-4.735,27.527A13.538,13.538,0,0,1,1735.229-504.344Zm-53.982,11.134a12.016,12.016,0,0,1,.418,1.218,1.982,1.982,0,0,1-3.118,2.119,5.74,5.74,0,0,0-5.451-1.212c-3.348,1.221-4.608,6.215-2.814,11.155l.011.031a1.989,1.989,0,0,1-2.24,2.661,11.748,11.748,0,0,1-8.728-7.519,11.777,11.777,0,0,1,7.364-15.2A11.793,11.793,0,0,1,1681.248-493.21Zm-46.033-39.041a3.239,3.239,0,0,1,1.6-4.285,3.226,3.226,0,0,1,4.275,1.608,3.239,3.239,0,0,1-1.6,4.285A3.227,3.227,0,0,1,1635.215-532.251Zm3.7,8.152a3.239,3.239,0,0,1,1.6-4.285,3.226,3.226,0,0,1,4.275,1.608,3.238,3.238,0,0,1-1.6,4.285A3.227,3.227,0,0,1,1638.91-524.1Zm3.785,8.349a3.239,3.239,0,0,1,1.6-4.285,3.226,3.226,0,0,1,4.276,1.608,3.238,3.238,0,0,1-1.6,4.285A3.226,3.226,0,0,1,1642.695-515.75Zm74.036-75.268a16.259,16.259,0,0,1-13.543,16.043c-.11-.019-.218-.038-.328-.06a16.254,16.254,0,0,1-13.218-15.983A16.254,16.254,0,0,1,1702.859-607c.11-.022.218-.041.328-.06A16.259,16.259,0,0,1,1716.731-591.018Zm-25.7.022a9.412,9.412,0,0,0,9.4,9.422,9.412,9.412,0,0,0,9.4-9.422,9.412,9.412,0,0,0-9.4-9.422A9.412,9.412,0,0,0,1691.026-591Zm-53.62-13.9a12.588,12.588,0,0,1,12.574-12.6,12.588,12.588,0,0,1,12.574,12.6,12.588,12.588,0,0,1-12.574,12.6A12.588,12.588,0,0,1,1637.406-604.9Zm3.034-2.336a6.107,6.107,0,0,0,6.1,6.113,6.106,6.106,0,0,0,6.1-6.113,6.106,6.106,0,0,0-6.1-6.113A6.107,6.107,0,0,0,1640.44-607.233Zm86.286-8.09q.4-.144.816-.264a12.57,12.57,0,0,1,15.546,8.651,12.6,12.6,0,0,1-8.632,15.58q-.542.155-1.084.26v-13.153A12.592,12.592,0,0,0,1726.727-615.323Zm-45.7,37.354a3.233,3.233,0,0,1,3.229-3.236,3.233,3.233,0,0,1,3.229,3.236,3.233,3.233,0,0,1-3.229,3.236A3.232,3.232,0,0,1,1681.028-577.969Zm-9.333,0a3.233,3.233,0,0,1,3.229-3.236,3.233,3.233,0,0,1,3.229,3.236,3.233,3.233,0,0,1-3.229,3.236A3.233,3.233,0,0,1,1671.695-577.969Z" transform="translate(-1634.925 617.499)"/></clipPath><clipPath id="fq"><path class="a" d="M1677.7-568.974a16.26,16.26,0,0,0,13.543-16.043A16.26,16.26,0,0,0,1677.7-601.06a16.265,16.265,0,0,1,2.68-.221,16.246,16.246,0,0,1,16.229,16.264,16.246,16.246,0,0,1-16.229,16.264,16.265,16.265,0,0,1-2.68-.221Z" transform="translate(-1677.705 601.281)"/></clipPath><clipPath id="fs"><path class="b" d="M1742.23-650.4H1681V-711h61.23Z" transform="translate(-1681 711)"/></clipPath><clipPath id="ft"><path class="a" d="M1691.783-647.882h-9.164V-661.4h9.164a6.813,6.813,0,0,1,6.829,6.758,6.813,6.813,0,0,1-6.829,6.758" transform="translate(-1682.619 661.398)"/></clipPath><clipPath id="fv"><path class="b" d="M1727.693-698.779a4.939,4.939,0,0,1,4.914-4.263,4.929,4.929,0,0,1,4.955,4.9,4.929,4.929,0,0,1-4.955,4.9,4.959,4.959,0,0,1-4.508-2.865l-3.456-2.616-4.7,3.56-4.7-3.56-4.7,3.56-4.7-3.56-4.7,3.56-2.594-1.965a4.944,4.944,0,0,1-4.848,3.886,4.929,4.929,0,0,1-4.955-4.9,4.929,4.929,0,0,1,4.955-4.9,4.951,4.951,0,0,1,4.739,3.465l2.7,2.048,4.7-3.56,4.7,3.56,4.7-3.56,4.7,3.56,4.7-3.56Zm3.123,45.527H1695.15a5.115,5.115,0,0,1-5.142-5.088v-23.314a5.115,5.115,0,0,1,5.142-5.088h35.666a5.115,5.115,0,0,1,5.142,5.088v23.314A5.115,5.115,0,0,1,1730.816-653.252Zm-3.325,4.615h-29.017a2.32,2.32,0,0,1-2.332-2.307,2.32,2.32,0,0,1,2.332-2.307h29.017a2.319,2.319,0,0,1,2.332,2.307A2.319,2.319,0,0,1,1727.492-648.637Z" transform="translate(-1688.747 703.042)"/></clipPath><clipPath id="fx"><path class="b" d="M1711.07-697.575l-4.7,3.56-2.594-1.946-.123-2.483,2.716,2.057,4.7-3.56,4.7,3.56,4.7-3.56,4.7,3.56,4.7-3.56,3.009,2.372.5,2.632-3.508-2.632-4.7,3.56-4.7-3.56-4.7,3.56Z" transform="translate(-1703.654 699.947)"/></clipPath><clipPath id="fz"><path class="a" d="M1732.354-619.55h-29.017a2.32,2.32,0,0,1-2.332-2.307,2.32,2.32,0,0,1,2.332-2.307h29.017a2.319,2.319,0,0,1,2.332,2.307,2.319,2.319,0,0,1-2.332,2.307" transform="translate(-1701.005 624.165)"/></clipPath><clipPath id="gb"><path class="a" d="M1759-647.882h9.163V-661.4H1759a6.814,6.814,0,0,0-6.829,6.758,6.814,6.814,0,0,0,6.829,6.758" transform="translate(-1752.173 661.398)"/></clipPath><clipPath id="gd"><path class="a" d="M1711.705-656.159c0,5.168-3.382,9.357-7.554,9.357s-7.554-4.19-7.554-9.357,3.382-9.357,7.554-9.357,7.554,4.19,7.554,9.357" transform="translate(-1696.597 665.516)"/></clipPath><clipPath id="gf"><path class="a" d="M1708.564-646.8h3.55v-18.715h-3.55Z" transform="translate(-1708.564 665.516)"/></clipPath><clipPath id="gh"><path class="a" d="M1717.329-656.159c0,5.168-3.382,9.357-7.555,9.357s-7.554-4.19-7.554-9.357,3.382-9.357,7.554-9.357,7.555,4.19,7.555,9.357" transform="translate(-1702.22 665.516)"/></clipPath><clipPath id="gj"><path class="a" d="M1713.38-653.612c0,1.819-1.19,3.294-2.659,3.294s-2.659-1.475-2.659-3.294,1.191-3.294,2.659-3.294,2.659,1.475,2.659,3.294" transform="translate(-1708.061 655.906)"/></clipPath></defs><g transform="translate(333.8 -3155.001)"><g class="c" transform="translate(-185.558 3177.022)"><g class="d" transform="translate(-766.023 -400.683)"><path class="e" d="M272.2-1095H427.961v304H272.2Z" transform="translate(491.138 1492.997)"/></g></g><g transform="translate(-58.196 3193.908)"><g class="f" transform="translate(0 0)"><g class="g" transform="translate(-141.971 -11.515)"><path class="h" d="M509.326-1063.561H666.713v268.986H509.326Z" transform="translate(-370.04 1072.391)"/></g></g><g transform="translate(49.063 103.508)"><g transform="translate(26.945)"><path class="i" d="M.429,0V203.426" transform="translate(-0.429)"/></g><g transform="translate(28.328 97.652)"><path class="i" d="M0,28.205,28.227,0"/></g><g transform="translate(27.867 17.587)"><path class="i" d="M0,17.526,17.54,0"/></g><g transform="translate(0 58.665)"><path class="i" d="M26.023,26,0,0"/></g></g></g><g transform="translate(-134.533 3294.648)"><g transform="translate(24.707 117.627)"><path class="j" d="M0,27.393,27.393,0"/></g><g transform="translate(24.707 52.637)"><path class="j" d="M0,13.965,13.965,0"/></g><g transform="translate(23.364 0)"><path class="j" d="M.5,0V214.843" transform="translate(-0.5)"/></g><g transform="translate(0 75.732)"><path class="j" d="M22.021,22.021,0,0"/></g><g transform="translate(11.816 19.336)"><path class="j" d="M10.742,10.742,0,0"/></g></g><g transform="translate(-333.8 3269.942)"><g class="k" transform="translate(0)"><g class="d" transform="translate(-617.782 -493.602)"><path class="h" d="M-3.8-922H176.668v181.005H-3.8Z" transform="translate(618.896 1412.917)"/></g></g><g transform="translate(68.75 62.305)"><g transform="translate(18.53)"><path class="l" d="M.5,0V179.394" transform="translate(-0.5)"/></g><g transform="translate(18.799 63.916)"><path class="l" d="M0,19.336,19.336,0"/></g><g transform="translate(19.336 14.502)"><path class="l" d="M0,10.205,10.205,0"/></g><g transform="translate(0 35.449)"><path class="l" d="M18.8,18.8,0,0"/></g></g></g><g transform="translate(-252.267 3462.763)"><g class="m" transform="translate(60.044 37.567)"><g class="n" transform="translate(-60.044 -37.567)"><path class="o" d="M259.792-493.056h37.7v51.305h-37.7Z" transform="translate(-202.433 527.938)"/></g></g><g class="n" transform="translate(0)"><g transform="translate(76.209 47.36)"><path class="p" d="M.15,0V29.282" transform="translate(-0.15)"/></g><g transform="translate(83.511 47.36)"><path class="p" d="M2.036,0,0,29.282"/></g><g transform="translate(66.872 47.36)"><path class="p" d="M0,0,2.036,29.282"/></g></g><g class="q" transform="translate(58.813 35.442)"><g class="n" transform="translate(-58.813 -35.442)"><path class="o" d="M257.5-497.013h40.051v10.226H257.5Z" transform="translate(-201.372 529.77)"/></g></g><g class="n" transform="translate(0)"><g transform="translate(60.044 41.364)"><path class="r" d="M0,.15H32.33" transform="translate(0 -0.15)"/></g></g><g class="s" transform="translate(69.83 32.97)"><g class="n" transform="translate(-69.83 -32.97)"><path class="o" d="M278.011-501.616h6.772v8.481h-6.772Z" transform="translate(-210.867 531.9)"/></g></g><g class="t" transform="translate(80.693 32.679)"><g class="n" transform="translate(-80.693 -32.679)"><path class="o" d="M298.236-502.157h6.772v8.481h-6.772Z" transform="translate(-220.229 532.151)"/></g></g><g class="u" transform="translate(69.83 31.743)"><g class="n" transform="translate(-69.83 -31.743)"><path class="o" d="M278.011-503.9h17.635v7.094H278.011Z" transform="translate(-210.867 532.958)"/></g></g></g><g class="v" transform="translate(345.273 3522.769)"><g class="d" transform="translate(-1296.854 -746.43)"><path class="o" d="M1260.513-451.28h25.864v65.131h-25.864Z" transform="translate(33.656 1195.024)"/></g></g><g class="w" transform="translate(363.434 3463.085)"><g class="d" transform="translate(-1315.016 -686.746)"><path class="o" d="M1294.326-562.4h10.034v131.946h-10.034Z" transform="translate(18.004 1246.461)"/></g></g><g transform="translate(336.94 3480.858)"><g class="x" transform="translate(24.883 0)"><g class="d" transform="translate(-1313.405 -704.519)"><path class="o" d="M1291.328-529.311h33.031v119.205h-33.031Z" transform="translate(19.392 1231.144)"/></g></g><g class="y" transform="translate(0 90.171)"><g class="d" transform="translate(-1288.522 -794.689)"><path class="h" d="M1245-361.429h60.69v40.79H1245Z" transform="translate(40.837 1153.433)"/></g></g><g transform="translate(0 111.968)"><path class="z" d="M0,.3H55.319" transform="translate(0 -0.3)"/></g><g transform="translate(1.284 102.808)"><path class="z" d="M0,.3H52.929" transform="translate(0 -0.3)"/></g></g><g transform="translate(718.753 3317.521)"><g class="aa" transform="translate(15.734 12.945)"><g class="ab" transform="translate(-160.681 -62.673)"><path class="ac" d="M1985.16-809.315h14.528V-560.17H1985.16Z" transform="translate(-1827.164 869.302)"/></g></g><g class="ad" transform="translate(12.988 254.033)"><g class="ab" transform="translate(-157.936 -303.761)"><path class="e" d="M1980.048-360.451h20.02v30.212h-20.02Z" transform="translate(-1824.798 661.526)"/></g></g><g class="ae" transform="translate(9.012 265.335)"><g class="ab" transform="translate(-153.959 -315.062)"><path class="ac" d="M1972.645-339.41h27.972v77.971h-27.972Z" transform="translate(-1821.371 651.787)"/></g></g><g class="af" transform="translate(3.997 328.317)"><g class="ab" transform="translate(-148.945 -378.044)"><path class="e" d="M1963.309-222.148h38v15.3h-38Z" transform="translate(-1817.05 597.507)"/></g></g><g class="ag" transform="translate(5.622 264.652)"><g class="ab" transform="translate(-150.57 -314.379)"><path class="e" d="M1966.334-340.682h34.751v12.573h-34.751Z" transform="translate(-1818.45 652.375)"/></g></g><g class="ah" transform="translate(14.217 0)"><g class="ab" transform="translate(-159.164 -49.727)"><path class="e" d="M1982.336-833.416H1999.9V-815.1h-17.562Z" transform="translate(-1825.857 880.458)"/></g></g><g class="ai" transform="translate(7.909 71.1)"><g class="ab" transform="translate(-152.857 -120.827)"><path class="e" d="M1970.593-701.041h30.176v12.573h-30.176Z" transform="translate(-1820.421 819.183)"/></g></g><g class="aj" transform="translate(11.534 78.301)"><g class="ab" transform="translate(-156.482 -128.029)"><path class="e" d="M1977.342-687.633h22.926v10.1h-22.926Z" transform="translate(-1823.545 812.976)"/></g></g><g class="ak" transform="translate(3.006 23.38)"><g class="ab" transform="translate(-147.953 -73.108)"><path class="h" d="M1961.463-789.886h39.984v53.09h-39.984Z" transform="translate(-1816.195 860.309)"/></g></g><g class="al" transform="translate(0 17.368)"><g class="ab" transform="translate(-144.948 -67.096)"><path class="e" d="M1955.867-801.08h46v13.912h-46Z" transform="translate(-1813.605 865.49)"/></g></g></g><g class="am" transform="translate(513.42 3359.605)"><g class="an" transform="translate(-186.148 -91.812)"><path class="ao" d="M1573.574-755.063h8.928v246.672h-8.928Z" transform="translate(-1390.112 844.189)"/></g></g><g transform="translate(403.952 3295.183)"><g transform="translate(0 64.421)"><g class="ap"><g class="an" transform="translate(-76.68 -91.812)"><path class="o" d="M1369.764-755.063H1484.6v246.672H1369.764Z" transform="translate(-1295.77 844.189)"/></g></g><g class="aq" transform="translate(13.011 10.646)"><g class="an" transform="translate(-89.691 -102.457)"><path class="e" d="M1393.989-735.243h92.459v236.027h-92.459Z" transform="translate(-1306.983 835.014)"/></g></g><g class="ar" transform="translate(44.638 161.633)"><g class="an" transform="translate(-121.318 -253.445)"><path class="o" d="M1452.872-454.13h29.207v60.6h-29.207Z" transform="translate(-1334.24 704.89)"/></g></g><g class="as" transform="translate(44.638 33.287)"><g class="an" transform="translate(-121.318 -125.098)"><path class="o" d="M1452.872-693.089h29.207v60.595h-29.207Z" transform="translate(-1334.24 815.502)"/></g></g><g class="at" transform="translate(44.638 97.46)"><g class="an" transform="translate(-121.318 -189.271)"><path class="o" d="M1452.872-573.61h29.207v60.6h-29.207Z" transform="translate(-1334.24 760.196)"/></g></g><g class="au" transform="translate(9.455 10.646)"><g class="an" transform="translate(-86.134 -102.457)"><path class="ao" d="M1387.367-735.243h8.927v236.027h-8.927Z" transform="translate(-1303.918 835.014)"/></g></g><g class="av" transform="translate(16.599 104.986)"><g class="an" transform="translate(-93.279 -196.798)"><path class="ao" d="M1400.669-559.6H1413.5v30.418h-12.834Z" transform="translate(-1310.076 753.71)"/></g></g></g><g transform="translate(0 0)"><g class="aw" transform="translate(4.062 0.346)"><g class="an" transform="translate(-80.741 -27.736)"><path class="ao" d="M1377.326-874.36H1491.66v61.091H1377.326Z" transform="translate(-1299.27 899.411)"/></g></g><g class="ax"><g class="an" transform="translate(-76.68 -27.39)"><path class="o" d="M1369.764-875H1484.1v61.091H1369.764Z" transform="translate(-1295.77 899.709)"/></g></g><g class="ay" transform="translate(0 0.346)"><g class="an" transform="translate(-76.68 -27.736)"><path class="o" d="M1369.764-874.36H1484.1v61.091H1369.764Z" transform="translate(-1295.77 899.411)"/></g></g><g class="az" transform="translate(9.545 10.153)"><g class="an" transform="translate(-86.225 -37.543)"><path class="ao" d="M1387.536-856.1h90.5v41.942h-90.5Z" transform="translate(-1303.996 890.959)"/></g></g><g class="ba" transform="translate(13.945 10.153)"><g class="an" transform="translate(-90.625 -37.543)"><path class="bb" d="M1395.727-856.1h90.5v41.942h-90.5Z" transform="translate(-1307.788 890.959)"/></g></g></g></g><g transform="translate(-744.063 3244.082)"><rect class="bc" width="126.703" height="58.008" transform="translate(964 382.677)"/><rect class="bd" width="126.703" height="16.828" transform="translate(964 365.848)"/><path class="be" d="M0,0H8.137V53.545L0,58.008Z" transform="translate(1090.703 382.677)"/><path class="bf" d="M0,0,8.137,3.567V16.828H0Z" transform="translate(1090.703 365.848)"/></g><g class="bg" transform="translate(508.278 3155.001)"><g class="bh" transform="translate(-174.023 -66.602)"><path class="h" d="M1564-1136h194.478v60.04H1564Z" transform="translate(-1392.663 1199.915)"/></g></g><g class="bi" transform="translate(255.809 3531.579)"><g class="bj" transform="translate(-27.447 -44.729)"><path class="bk" d="M1093.948-424.823h12.3v-10.054h-12.3Z" transform="translate(-1069.187 476.921)"/></g></g><g transform="translate(171.297 3486.85)"><g transform="translate(57.065)"><g class="bl" transform="translate(13.348 17.999)"><g class="bj" transform="translate(-13.348 -17.999)"><path class="bm" d="M1067.7-464.469h17.08v-20.175H1067.7Z" transform="translate(-1057.036 499.958)"/></g></g><g class="bn" transform="translate(13.915 21.424)"><g class="bj" transform="translate(-13.915 -21.424)"><path class="bo" d="M1068.754-439.494h38.855v-38.774h-38.855Z" transform="translate(-1057.525 497.006)"/></g></g><g class="bp" transform="translate(19.511 33.776)"><g class="bj" transform="translate(-19.511 -33.776)"><path class="bq" d="M1079.174-443.978h8.241v-11.293h-8.241Z" transform="translate(-1062.348 486.361)"/></g></g><g class="br" transform="translate(24.437 32.803)"><g class="bj" transform="translate(-24.437 -32.803)"><path class="bs" d="M1088.344-448.793h8.273v-8.288h-8.273Z" transform="translate(-1066.593 487.199)"/></g></g><g class="bt" transform="translate(16.389 32.803)"><g class="bj" transform="translate(-16.389 -32.803)"><path class="bs" d="M1073.36-448.793h8.273v-8.288h-8.273Z" transform="translate(-1059.657 487.199)"/></g></g><g class="bu" transform="translate(9.213 12.832)"><g class="bj" transform="translate(-9.213 -12.832)"><path class="bv" d="M1060-465.655h40.7v-28.609H1060Z" transform="translate(-1053.473 504.411)"/></g></g><g class="bw" transform="translate(22.98 39.917)"><g class="bj" transform="translate(-22.98 -39.917)"><path class="bb" d="M1085.632-436.823h8.284v-7.015h-8.284Z" transform="translate(-1065.337 481.069)"/></g></g><g class="bj" transform="translate(0 0)"><g transform="translate(25.893 41.56) rotate(180)"><path class="bx" d="M0,1.644A3.388,3.388,0,0,1,2.913,0" transform="translate(0 0)"/></g><g transform="translate(29.241 37.409) rotate(180)"><path class="bx" d="M6.639,3.336a3.32,3.32,0,1,0-3.32,3.336A3.328,3.328,0,0,0,6.639,3.336Z" transform="translate(0 0)"/></g><g transform="translate(20.883 37.409) rotate(180)"><path class="bx" d="M6.639,3.336A3.32,3.32,0,1,0,3.32,6.672,3.328,3.328,0,0,0,6.639,3.336Z" transform="translate(0 0)"/></g><g transform="translate(22.588 34.227) rotate(180)"><path class="bx" d="M1.435,0H0" transform="translate(0 0)"/></g><g transform="translate(37.441 34.073) rotate(180)"><path class="bx" d="M8.2,0H0" transform="translate(0 0)"/></g></g></g><g transform="translate(19.291 41.013)"><g class="by" transform="translate(1.413 0)"><g class="bz" transform="translate(-1.413 0)"><path class="bo" d="M975.148-358.878h116.809V-441.8H975.148Z" transform="translate(-976.421 439.111)"/></g></g><g class="ca" transform="translate(10.693 12.245)"><g class="bz" transform="translate(-10.693 -12.246)"><path class="cb" d="M992.426-347.826H1100V-419H992.426Z" transform="translate(-984.418 428.557)"/></g></g><g class="cc" transform="translate(46.302 36.301)"><g class="bz" transform="translate(-46.302 -36.301)"><path class="cd" d="M1058.723-358.553h10.526v-15.658h-10.526Z" transform="translate(-1015.107 407.826)"/></g></g><g class="bz" transform="translate(0 0)"><g transform="translate(94.015 61.253) rotate(180)"><path class="ce" d="M8.9,0,0,12.595,10.753,28.863" transform="translate(0 0)"/></g></g></g><g transform="translate(0 103.928)"><g class="cf" transform="translate(0 74.427)"><g class="cg" transform="translate(-0.279 -126.73)"><path class="ch" d="M936.6-159.159h89.911v-26.931H936.6Z" transform="translate(-939.008 310.134)"/></g></g><g class="ci" transform="translate(21.093 74.504)"><g class="cg" transform="translate(-21.372 -126.807)"><path class="bo" d="M975.872-168.213h66.534v-17.734H975.872Z" transform="translate(-957.186 310.068)"/></g></g><g class="cj" transform="translate(7.974 0)"><g class="cg" transform="translate(-8.253 -52.303)"><path class="ck" d="M951.448-236.779h106.1V-324.66h-106.1Z" transform="translate(-945.881 374.277)"/></g></g><g class="cl" transform="translate(59.903 0)"><g class="cg" transform="translate(-60.182 -52.303)"><path class="cm" d="M1048.131-236.779H1102.3V-324.66h-54.174Z" transform="translate(-990.634 374.277)"/></g></g></g></g><g class="cn" transform="translate(317.654 3537.625)"><g class="co" transform="translate(-27.934 -50.109)"><path class="cp" d="M1209.092-415.234h10.361v-8.386h-10.361Z" transform="translate(-1183.844 471.044)"/></g></g><g class="cq" transform="translate(275.375 3535.993)"><g transform="translate(20.723 74.804) rotate(180)"><path class="cr" d="M0,7.434a5.887,5.887,0,0,1,3.4-3.8c.921-.316.691-4.043,2.949-3.6" transform="translate(0 0)"/></g></g><g class="cq" transform="translate(275.375 3535.993)"><g transform="translate(61.729 28.766) rotate(180)"><path class="cr" d="M0,0,3.3,5.176" transform="translate(0 0)"/></g></g><g class="cs" transform="translate(228.551 3567.68)"><g transform="translate(54.736 54.637) rotate(180)"><path class="ce" d="M1.642,0S7.9,16.536,7.011,21.969,0,28.621,0,28.621" transform="translate(0 0)"/></g></g><g transform="translate(235.405 3487.516)"><g transform="translate(54.315)"><g class="ct" transform="translate(11.74 12.712)"><g class="co" transform="translate(-11.74 -12.712)"><path class="cu" d="M1178.941-427.483h66.168v-65.765h-66.168Z" transform="translate(-1169.887 503.274)"/></g></g><g class="cv" transform="translate(14.617 31.107)"><g class="co" transform="translate(-14.617 -31.107)"><path class="cw" d="M1184.3-426.06h32.022V-459H1184.3Z" transform="translate(-1172.367 487.421)"/></g></g><g class="cx" transform="translate(18.326 38.465)"><g class="co" transform="translate(-18.326 -38.465)"><path class="bq" d="M1191.2-435.077h7.694V-445.3H1191.2Z" transform="translate(-1175.563 481.08)"/></g></g><g class="cy" transform="translate(22.456 36.851)"><g class="co" transform="translate(-22.456 -36.851)"><path class="bs" d="M1198.894-439.422h7.745v-8.884h-7.745Z" transform="translate(-1179.123 482.471)"/></g></g><g class="cz" transform="translate(16.318 36.696)"><g class="co" transform="translate(-16.318 -36.696)"><path class="bs" d="M1187.465-439.71h7.745v-8.884h-7.745Z" transform="translate(-1173.833 482.605)"/></g></g><g class="co" transform="translate(0 0)"><g transform="translate(24.249 45.661) rotate(180)"><path class="da" d="M3.03.066A3.024,3.024,0,0,0,0,1.263" transform="translate(0 0)"/></g></g><g class="db" transform="translate(27.94 50.109)"><g class="co" transform="translate(-27.94 -50.109)"><path class="bk" d="M1209.1-415.235h10.361v-8.386H1209.1Z" transform="translate(-1183.849 471.045)"/></g></g></g><g transform="translate(53.44 54.469)"><g class="dc" transform="translate(0 0)"><g class="cq" transform="translate(-13.47 -5.991)"><path class="cw" d="M1155.455-334.441h72.833V-415.5h-72.833Z" transform="translate(-1144.671 418.81)"/></g></g><g class="dd" transform="translate(35.661 0.021)"><g class="cq" transform="translate(-49.131 -6.013)"><path class="de" d="M1221.85-398.394h7.617v-17.07h-7.617Z" transform="translate(-1175.404 418.791)"/></g></g><g class="df" transform="translate(18.134 0.515)"><g class="cq" transform="translate(-31.604 -6.507)"><path class="de" d="M1189.217-396.48h15.912v-18.065h-15.912Z" transform="translate(-1160.299 418.366)"/></g></g><g class="dg" transform="translate(16.222 10.861)"><g class="cq" transform="translate(-29.692 -16.852)"><path class="dh" d="M1185.658-360.513h36.359v-34.769h-36.359Z" transform="translate(-1158.651 409.449)"/></g></g></g><g transform="translate(0 93.947)"><g class="di" transform="translate(0 84.599)"><g class="cs" transform="translate(-6.854 -98.382)"><path class="cu" d="M1055.958-149.85h76.462v-34.644h-76.462Z" transform="translate(-1051.79 280.191)"/></g></g><g class="dj" transform="translate(5.98 11.105)"><g class="cs" transform="translate(-12.834 -24.888)"><path class="cw" d="M1067.092-224.495h74.794v-96.832h-74.794Z" transform="translate(-1056.944 343.529)"/></g></g><g class="dk" transform="translate(37.432 0)"><g class="cs" transform="translate(-44.286 -13.783)"><path class="bv" d="M1125.65-303.321h73.722V-342H1125.65Z" transform="translate(-1084.05 353.1)"/></g></g></g></g><g transform="translate(522.243 3462.764)"><g class="dl" transform="translate(23.801 0)"><g class="d" transform="translate(-1497.625 -686.424)"><path class="e" d="M1634.313-563h32.119v41.035h-32.119Z" transform="translate(-139.373 1246.738)"/></g></g><g transform="translate(37.275 18.738)"><path class="dm" d="M.3,92.753V0" transform="translate(-0.3)"/></g><g class="dn" transform="translate(0 38.308)"><g class="d" transform="translate(-1473.824 -724.732)"><path class="e" d="M1590-491.677h33.961v33.961H1590Z" transform="translate(-118.861 1213.723)"/></g></g><g class="do" transform="translate(42.722 57.719) rotate(-3)"><g class="d" transform="translate(-1517.201 -743.427)"><path class="e" d="M1670.759-456.871h33.035v33.036h-33.035Z" transform="translate(-156.244 1197.612)"/></g></g><g transform="translate(37.671 65.973)"><path class="dm" d="M23.434,0,0,23.5"/></g><g transform="translate(37.208 43.499)"><path class="dm" d="M17.126,0,0,16.924"/></g><g transform="translate(19.426 80.649)"><path class="dm" d="M0,0,17.891,18.093"/></g><g transform="translate(13.259 51.688)"><path class="dm" d="M0,0,23.916,24.2"/></g><g class="dp" transform="translate(10.073 104.468)"><g class="d" transform="translate(-1483.897 -790.892)"><path class="h" d="M1608.754-368.5h59.774v44.249h-59.774Z" transform="translate(-127.542 1156.705)"/></g></g><g transform="translate(10.073 114.944)"><path class="dm" d="M54.4.3H0" transform="translate(0 -0.3)"/></g><g transform="translate(10.073 125.452)"><path class="dm" d="M54.4.3H0" transform="translate(0 -0.3)"/></g></g><g transform="translate(-107.063 3446.441)"><g transform="translate(0 118.357)"><g class="dq" transform="translate(11.752 9.722)"><g class="dr" transform="translate(-12.997 -23.294)"><path class="ds" d="M1755.131-513.1H1616v117.325h139.131Z" transform="translate(-1606.159 533.236)"/></g></g><g class="dt" transform="translate(98.935 106.683)"><g class="dr" transform="translate(-100.181 -120.255)"><path class="du" d="M1675.575-359.494h-38.89v19.733h38.89Z" transform="translate(-1539.661 476.592)"/></g></g><g class="dv" transform="translate(26.529 112.551)"><g class="dr" transform="translate(-27.774 -126.122)"><path class="du" d="M1799.013-350.2H1775.07v13.865h23.943Z" transform="translate(-1750.452 473.165)"/></g></g><g class="dw" transform="translate(55.06 92.224)"><g class="dr" transform="translate(-56.306 -105.796)"><path class="du" d="M1734.531-382.4h-56.95v34.192h56.95Z" transform="translate(-1624.431 485.039)"/></g></g><g class="dx" transform="translate(95.138 66.61)"><g class="dr" transform="translate(-96.383 -80.181)"><path class="du" d="M1694.813-422.978h-16.26v16.259h16.26Z" transform="translate(-1585.328 500.003)"/></g></g><g class="dy" transform="translate(59.067 70.912)"><g class="dr" transform="translate(-60.313 -84.484)"><path class="du" d="M1755.368-416.161h-10.417v10.418h10.417Z" transform="translate(-1687.795 497.489)"/></g></g><g class="dz" transform="translate(0 101.946)"><g class="dr" transform="translate(-1.245 -115.518)"><path class="du" d="M1845.805-367H1830.02v15.786h15.785Z" transform="translate(-1831.931 479.36)"/></g></g><g class="ea" transform="translate(59.584 0)"><g class="dr" transform="translate(-60.829 -13.572)"><path class="eb" d="M1735.692-528.5h-42.7v25.931h42.7Z" transform="translate(-1635.321 538.915)"/></g></g><g class="ec" transform="translate(63.166 6.312)"><g class="dr" transform="translate(-64.411 -19.884)"><path class="bk" d="M1734.14-518.5H1698.5v19.618h35.64Z" transform="translate(-1637.245 535.228)"/></g></g></g><g transform="translate(10.748 58.705)"><g class="ed"><g transform="translate(105.584 12.927)"><path class="ee" d="M7.344,53.964,0,0" transform="translate(0 0)"/></g></g><g class="ef" transform="translate(37.557 52.696)"><g class="ed" transform="translate(-37.557 -52.696)"><path class="bm" d="M1739.9-525.672h-66.08v-13.847h66.08Z" transform="translate(-1639.42 589.059)"/></g></g><g class="ed"><g transform="translate(17.303 11.189)"><path class="ee" d="M0,53.908,7.742,0" transform="translate(0 0)"/></g></g><g class="eg" transform="translate(4.998 0.316)"><g class="ed" transform="translate(-4.998 -0.316)"><path class="eb" d="M1756.272-475.884H1629.925V-622.5h126.347Z" transform="translate(-1628.083 619.659)"/></g></g><g class="eh" transform="translate(10.932 0.316)"><g class="ed" transform="translate(-10.932 -0.316)"><path class="bk" d="M1750.338-475.884H1629.925V-622.5h120.413Z" transform="translate(-1622.149 619.659)"/></g></g><g class="ei" transform="translate(79.119 10.554)"><g class="ed" transform="translate(-79.119 -10.554)"><path class="bm" d="M1697.926-567.44H1672.7v-38.841h25.221Z" transform="translate(-1596.742 613.678)"/></g></g></g><g transform="translate(45.466)"><g class="ej"><g transform="translate(51.385 13.589)"><path class="ek" d="M0,21.929V0" transform="translate(0 0)"/></g></g><g class="el" transform="translate(44.216 31.311)"><g class="ej" transform="translate(-44.216 -31.311)"><path class="bm" d="M1699.924-646.57h-22.3V-666.4h22.3Z" transform="translate(-1636.559 694.552)"/></g></g><g class="em" transform="translate(7.526 5.023)"><g class="ej" transform="translate(-7.526 -5.023)"><path class="eb" d="M1738.874-647.325h-55.127v-60.717h55.127Z" transform="translate(-1679.378 709.909)"/></g></g><g class="en" transform="translate(17.206 6.977)"><g class="ej" transform="translate(-17.206 -6.977)"><path class="bk" d="M1734.69-692.7h-36.036v-12.245h36.036Z" transform="translate(-1684.604 708.768)"/></g></g><g class="eo" transform="translate(14.921 54.813)"><g class="ej" transform="translate(-14.921 -54.813)"><path class="bk" d="M1736-618.238H1696v-10.927H1736Z" transform="translate(-1684.24 680.822)"/></g></g><g class="ep" transform="translate(0.311 31.311)"><g class="ej" transform="translate(-0.311 -31.311)"><path class="bm" d="M1769.478-646.57h-22.3V-666.4h22.3Z" transform="translate(-1750.018 694.552)"/></g></g><g class="eq" transform="translate(36.277 28.711)"><g class="ej" transform="translate(-36.277 -28.711)"><path class="bm" d="M1713.018-645.489H1691.6v-25.027h21.421Z" transform="translate(-1658.477 696.071)"/></g></g><g class="er" transform="translate(40.281 28.711)"><g class="ej" transform="translate(-40.281 -28.711)"><path class="bm" d="M1713.426-645.489h-9.862v-25.027h9.862Z" transform="translate(-1666.439 696.071)"/></g></g><g class="es" transform="translate(32.727 28.711)"><g class="ej" transform="translate(-32.727 -28.711)"><path class="bb" d="M1718.641-645.489H1697.22v-25.027h21.421Z" transform="translate(-1667.649 696.071)"/></g></g><g class="et" transform="translate(38.829 34.146)"><g class="ej" transform="translate(-38.829 -34.146)"><path class="bm" d="M1714.692-649.005h-11.631v-12.9h11.631Z" transform="translate(-1667.387 692.896)"/></g></g><g class="ej"><g transform="translate(12.48 14.599)"><path class="ek" d="M0,20.919V0" transform="translate(0 0)"/></g></g></g></g></g></svg>