<svg xmlns="http://www.w3.org/2000/svg" xmlns:xlink="http://www.w3.org/1999/xlink" width="1262.435" height="425.127" viewBox="0 0 1262.435 425.127"><defs><style>.a,.af,.am,.ao,.b,.cg,.ch,.ct,.db,.df,.dr,.ea,.eg,.es,.eu,.m{fill:none;}.a{clip-rule:evenodd;}.c{fill:#b5b8bb;}.d{fill:#d6dadd;}.e{clip-path:url(#a);}.f{clip-path:url(#b);}.g{fill:#dcedff;}.h{clip-path:url(#c);}.i{clip-path:url(#d);}.j{clip-path:url(#e);}.k{clip-path:url(#f);}.l{fill:#ebf6ff;}.am,.dr,.m{stroke:#b6d3ff;}.af,.m{stroke-width:5.4px;}.n{clip-path:url(#g);}.o{clip-path:url(#h);}.p{fill:#b6d3ff;}.q{clip-path:url(#i);}.r{clip-path:url(#k);}.s{fill:#cce2ff;}.t{clip-path:url(#m);}.u{clip-path:url(#o);}.v{clip-path:url(#q);}.w{clip-path:url(#s);}.x{clip-path:url(#u);}.y{clip-path:url(#w);}.z{clip-path:url(#y);}.aa{clip-path:url(#aa);}.ab{clip-path:url(#ac);}.ac{clip-path:url(#ae);}.ad{fill:#fff;}.ae{clip-path:url(#ag);}.af{stroke:#dcedff;}.ag{clip-path:url(#ai);}.ah{clip-path:url(#ak);}.ai{clip-path:url(#al);}.aj{clip-path:url(#am);}.ak{clip-path:url(#ao);}.al{clip-path:url(#ap);}.am,.ea{stroke-linecap:round;}.am,.dr,.eu{stroke-width:4.8px;}.an{clip-path:url(#ar);}.ao,.es{stroke:#cce2ff;}.ao{stroke-width:4.2px;}.ap{clip-path:url(#au);}.aq{clip-path:url(#aw);}.ar{clip-path:url(#ay);}.as{clip-path:url(#ba);}.at{clip-path:url(#bb);}.au{clip-path:url(#bc);}.av{clip-path:url(#be);}.aw{clip-path:url(#bf);}.ax{clip-path:url(#bg);}.ay{clip-path:url(#bi);}.az{clip-path:url(#bk);}.ba{clip-path:url(#bm);}.bb{clip-path:url(#bo);}.bc{clip-path:url(#bq);}.bd{clip-path:url(#bs);}.be{clip-path:url(#bu);}.bf{clip-path:url(#bw);}.bg{clip-path:url(#by);}.bh{clip-path:url(#ca);}.bi{clip-path:url(#cc);}.bj{clip-path:url(#ce);}.bk{clip-path:url(#cg);}.bl{clip-path:url(#ci);}.bm{clip-path:url(#cj);}.bn{fill:rgba(0,0,0,0.2);}.bo{clip-path:url(#ck);}.bp{clip-path:url(#cl);}.bq{fill:#cf3d83;}.br{clip-path:url(#cm);}.bs{clip-path:url(#cn);}.bt{fill:#18131e;}.bu{clip-path:url(#co);}.bv{fill:#ed4747;}.bw{clip-path:url(#cq);}.bx{fill:rgba(0,0,0,0.4);}.by{clip-path:url(#cs);}.bz{fill:#405fd2;}.ca{clip-path:url(#cu);}.cb{fill:#0d0a6c;}.cc{clip-path:url(#cw);}.cd{clip-path:url(#cy);}.ce{fill:#2e2e3d;}.cf{clip-path:url(#da);}.cg,.ch{stroke:#242435;}.cg,.db{stroke-width:2px;}.ch{stroke-width:3.2px;}.ci{clip-path:url(#dd);}.cj{clip-path:url(#de);}.ck{fill:#0c0a6d;}.cl{clip-path:url(#df);}.cm{clip-path:url(#dh);}.cn{fill:#19131e;}.co{clip-path:url(#dj);}.cp{fill:rgba(255,255,255,0.1);}.cq{clip-path:url(#dl);}.cr{clip-path:url(#dn);}.cs{fill:#71a064;}.ct{stroke:rgba(0,0,0,0.2);stroke-width:4px;}.cu{clip-path:url(#dq);}.cv{clip-path:url(#ds);}.cw{fill:#a37ef1;}.cx{clip-path:url(#du);}.cy{clip-path:url(#dw);}.cz{clip-path:url(#dy);}.da{clip-path:url(#dz);}.db{stroke:#1c295e;}.dc{clip-path:url(#eb);}.dd{clip-path:url(#ed);}.de{clip-path:url(#ee);}.df{stroke:rgba(0,0,0,0.15);stroke-width:2.31px;}.dg{clip-path:url(#eg);}.dh{fill:#2b2b38;}.di{clip-path:url(#ei);}.dj{clip-path:url(#el);}.dk{fill:#cd3d28;}.dl{clip-path:url(#en);}.dm{clip-path:url(#eo);}.dn{clip-path:url(#ep);}.do{clip-path:url(#er);}.dp{clip-path:url(#et);}.dq{clip-path:url(#eu);}.ds{clip-path:url(#ev);}.dt{clip-path:url(#ew);}.du{clip-path:url(#ex);}.dv{clip-path:url(#ez);}.dw{clip-path:url(#fb);}.dx{fill:#6ba0ff;}.dy{clip-path:url(#fd);}.dz{clip-path:url(#ff);}.ea,.eg{stroke:#18131e;}.ea{stroke-width:27px;}.eb{clip-path:url(#fg);}.ec{clip-path:url(#fj);}.ed{clip-path:url(#fl);}.ee{clip-path:url(#fn);}.ef{clip-path:url(#fp);}.eg{stroke-width:7px;}.eh{clip-path:url(#fq);}.ei{clip-path:url(#fs);}.ej{clip-path:url(#fu);}.ek{clip-path:url(#fw);}.el{clip-path:url(#fy);}.em{clip-path:url(#ga);}.en{clip-path:url(#gc);}.eo{clip-path:url(#ge);}.ep{clip-path:url(#gh);}.eq{clip-path:url(#gj);}.er{clip-path:url(#gk);}.es,.eu{stroke-linecap:square;}.es{stroke-width:8px;}.et{clip-path:url(#gl);}.eu{stroke:#ebf6ff;}.ev{fill:#ffd28a;}.ew{fill:#883498;}.ex{fill:#f6b751;}.ey{fill:#712181;}</style><clipPath id="a"><path class="a" d="M1296.328-524.311s19.13,42.222,21.414,88.129c0,0-10.707-46.521-21.414-88.129" transform="translate(-1296.328 524.311)"/></clipPath><clipPath id="b"><path class="b" d="M413.67-967.341H-1149V-1836H413.67Z" transform="translate(1149 1836)"/></clipPath><clipPath id="c"><path class="a" d="M1312.473-524.311s-14.423,31.834-16.145,66.447c0,0,8.072-35.076,16.145-66.447" transform="translate(-1296.328 524.311)"/></clipPath><clipPath id="d"><path class="b" d="M-1149-1181.057H29.207V-1836H-1149Z" transform="translate(1149 1836)"/></clipPath><clipPath id="e"><path class="a" d="M1281.353-329.008h-19.879q-.224,0-.446-.008c-9.064-.339-14.107-11.8-8.974-20.076l4.554-7.337h29.611l4.554,7.337c5.134,8.272.091,19.737-8.974,20.076q-.222.008-.446.008" transform="translate(-1250 356.429)"/></clipPath><clipPath id="f"><path class="b" d="M-1149-967.342H413.67V-1836H-1149Z" transform="translate(1149 1836)"/></clipPath><clipPath id="g"><path class="a" d="M1578.574-563.249h2.754V-750.063h-2.754Z" transform="translate(-1578.574 750.063)"/></clipPath><clipPath id="h"><path class="b" d="M1232-641.982h206.249V-921H1232Z" transform="translate(-1232 921)"/></clipPath><clipPath id="i"><path class="a" d="M1374.764-563.249h84.749V-750.063h-84.749Z" transform="translate(-1374.764 750.063)"/></clipPath><clipPath id="k"><path class="a" d="M1398.989-551.671h67.423V-730.243h-67.423Z" transform="translate(-1398.989 730.243)"/></clipPath><clipPath id="m"><path class="a" d="M1457.872-406.376h18.453V-449.13h-18.453Z" transform="translate(-1457.872 449.13)"/></clipPath><clipPath id="o"><path class="a" d="M1457.872-645.335h18.453v-42.754h-18.453Z" transform="translate(-1457.872 688.089)"/></clipPath><clipPath id="q"><path class="a" d="M1457.872-525.856h18.453V-568.61h-18.453Z" transform="translate(-1457.872 568.61)"/></clipPath><clipPath id="s"><path class="a" d="M1392.367-551.671h2.753V-730.243h-2.753Z" transform="translate(-1392.367 730.243)"/></clipPath><clipPath id="u"><path class="a" d="M1408.558-535.207h0a2.922,2.922,0,0,1-2.889-2.954v-13.483a2.922,2.922,0,0,1,2.889-2.954,2.922,2.922,0,0,1,2.889,2.954v13.483a2.922,2.922,0,0,1-2.889,2.954" transform="translate(-1405.669 554.598)"/></clipPath><clipPath id="w"><path class="a" d="M1466.684-826.222c0-23.824-18.884-43.138-42.179-43.138s-42.179,19.314-42.179,43.138Z" transform="translate(-1382.326 869.36)"/></clipPath><clipPath id="y"><path class="a" d="M1459.122-826.866c0-23.824-18.884-43.138-42.179-43.138s-42.179,19.314-42.179,43.138Z" transform="translate(-1374.764 870.004)"/></clipPath><clipPath id="aa"><path class="a" d="M1459.122-826.222c0-23.824-18.884-43.138-42.179-43.138s-42.179,19.314-42.179,43.138Z" transform="translate(-1374.764 869.36)"/></clipPath><clipPath id="ac"><path class="a" d="M1458.445-822.788h-65.909C1395.95-839,1409.407-851.1,1425.49-851.1s29.54,12.1,32.955,28.313" transform="translate(-1392.536 851.101)"/></clipPath><clipPath id="ae"><path class="a" d="M1466.636-822.788h-65.909C1404.141-839,1417.6-851.1,1433.682-851.1s29.54,12.1,32.954,28.313" transform="translate(-1400.727 851.101)"/></clipPath><clipPath id="ag"><path class="a" d="M1660.021-544.194c0,7.625-4.636,13.805-10.354,13.805s-10.354-6.181-10.354-13.805S1643.949-558,1649.667-558s10.354,6.181,10.354,13.805" transform="translate(-1639.313 558)"/></clipPath><clipPath id="ai"><path class="a" d="M1612.707-482.249c4.889,4.89,5.88,11.826,2.213,15.493s-10.6,2.676-15.493-2.213-5.88-11.826-2.213-15.493,10.6-2.676,15.493,2.213" transform="translate(-1595 486.677)"/></clipPath><clipPath id="ak"><path class="a" d="M1.525,20.043c3.287,3.073,11.9,2.38,16.658-2.379S25.9,6.537,21.8,2.049,9.409,1.259,5.035,5.372-1.762,16.97,1.525,20.043Z" transform="translate(0 0)"/></clipPath><clipPath id="al"><path class="b" d="M0,868.658H1562.67V0H0Z"/></clipPath><clipPath id="am"><path class="a" d="M1640.365-333.4h-11.1a15.553,15.553,0,0,1-15.507-15.507V-363.5h42.118v14.592a15.553,15.553,0,0,1-15.507,15.507" transform="translate(-1613.754 363.499)"/></clipPath><clipPath id="ao"><path class="a" d="M1318.469-738.514l-3.03,43.895h-26.612l-3.031-43.895a2.378,2.378,0,0,1,2.372-2.542H1316.1a2.377,2.377,0,0,1,2.372,2.542" transform="translate(-1285.791 741.056)"/></clipPath><clipPath id="ap"><path class="b" d="M1174-694.258h154.208V-811H1174Z" transform="translate(-1174 811)"/></clipPath><clipPath id="ar"><path class="a" d="M1318.559-740.1H1283.5v-1.861a3.047,3.047,0,0,1,3.047-3.047h28.966a3.046,3.046,0,0,1,3.047,3.047Z" transform="translate(-1283.5 745.013)"/></clipPath><clipPath id="au"><path class="a" d="M1304.011-746.472h1.416v-3.144h-1.416Z" transform="translate(-1304.011 749.616)"/></clipPath><clipPath id="aw"><path class="a" d="M1324.236-747.013h1.416v-3.144h-1.416Z" transform="translate(-1324.236 750.157)"/></clipPath><clipPath id="ay"><path class="a" d="M1304.011-750.158h12.4V-751.9h-12.4Z" transform="translate(-1304.011 751.9)"/></clipPath><clipPath id="ba"><path class="a" d="M369.764-266.778a18.451,18.451,0,0,1-18.452,18.451,18.451,18.451,0,0,1-18.451-18.451,18.451,18.451,0,0,1,18.451-18.451,18.451,18.451,0,0,1,18.452,18.451" transform="translate(-332.861 285.229)"/></clipPath><clipPath id="bb"><path class="b" d="M0-477.826H418.862V-847H0Z" transform="translate(0 847)"/></clipPath><clipPath id="bc"><path class="a" d="M713.544-266.778a18.452,18.452,0,0,1-18.452,18.451,18.451,18.451,0,0,1-18.452-18.451,18.451,18.451,0,0,1,18.452-18.451,18.452,18.452,0,0,1,18.452,18.451" transform="translate(-676.64 285.229)"/></clipPath><clipPath id="be"><path class="a" d="M352.413-429.452H128.782l-5.661-47.233,39.03-.189L146.538-591.04H298.172l38.12,113.565.2.6Z" transform="translate(-123.12 591.04)"/></clipPath><clipPath id="bf"><path class="b" d="M0-449.462H418.862V-847H0Z" transform="translate(0 847)"/></clipPath><clipPath id="bg"><path class="a" d="M517.366-440.981H469.76l-4.472-12.368-1.861-5.153-9.584-26.518L415.519-591.04h47.606l38.12,105.462.2.559Z" transform="translate(-415.519 591.04)"/></clipPath><clipPath id="bi"><path class="a" d="M383.016-485.035H333.194L317.585-591.04H344.7l22.739,62.915,3.6,9.954,8.526,23.587.894,2.47Z" transform="translate(-317.585 591.04)"/></clipPath><clipPath id="bk"><path class="a" d="M498.246-303.756H590.1v-44.036H498.246Z" transform="translate(-498.246 347.792)"/></clipPath><clipPath id="bm"><path class="a" d="M741.236-303.756h-68.9l-5.684-44.037h68.9Z" transform="translate(-666.65 347.793)"/></clipPath><clipPath id="bo"><path class="a" d="M159.881-274.653c0-12.272,10.435-22.22,23.307-22.22s23.307,9.948,23.307,22.22Z" transform="translate(-159.881 296.874)"/></clipPath><clipPath id="bq"><path class="a" d="M503.661-274.653c0-12.272,10.435-22.22,23.307-22.22s23.307,9.948,23.307,22.22Z" transform="translate(-503.661 296.874)"/></clipPath><clipPath id="bs"><path class="a" d="M551.7-266.778a18.451,18.451,0,0,1-18.452,18.451A18.451,18.451,0,0,1,514.8-266.778a18.451,18.451,0,0,1,18.451-18.451A18.451,18.451,0,0,1,551.7-266.778" transform="translate(-514.801 285.229)"/></clipPath><clipPath id="bu"><path class="a" d="M802.606-308.1c0,4.393-2.9,7.955-6.482,7.955s-6.482-3.562-6.482-7.955,2.9-7.955,6.482-7.955,6.482,3.561,6.482,7.955" transform="translate(-789.642 316.056)"/></clipPath><clipPath id="bw"><path class="a" d="M708.667-308.1c0,4.393-2.9,7.955-6.482,7.955s-6.482-3.562-6.482-7.955,2.9-7.955,6.482-7.955,6.482,3.561,6.482,7.955" transform="translate(-695.703 316.056)"/></clipPath><clipPath id="by"><path class="a" d="M440.331-411.3h-9.98a5.053,5.053,0,0,1-5.053-5.053v-26.384a5.053,5.053,0,0,1,5.053-5.053h9.98Z" transform="translate(-425.298 447.796)"/></clipPath><clipPath id="ca"><path class="a" d="M459.788-384.363h6.3v-15.676h-6.3Z" transform="translate(-459.788 400.039)"/></clipPath><clipPath id="cc"><path class="a" d="M207.923-266.778a18.451,18.451,0,0,1-18.451,18.451,18.451,18.451,0,0,1-18.452-18.451,18.452,18.452,0,0,1,18.452-18.451,18.451,18.451,0,0,1,18.451,18.451" transform="translate(-171.02 285.229)"/></clipPath><clipPath id="ce"><path class="a" d="M744.236-298.817h13.491v-6.874H744.236Z" transform="translate(-744.236 305.691)"/></clipPath><clipPath id="cg"><path class="a" d="M260.447-485.035H225.353L209.743-591.04h35.091Z" transform="translate(-209.743 591.04)"/></clipPath><clipPath id="ci"><path class="a" d="M984.706-557.821l-2.324-9.165,6.275,12.526Z" transform="translate(-982.383 566.986)"/></clipPath><clipPath id="cj"><path class="b" d="M810.8-550.194H947.224V-668.4H810.8Z" transform="translate(-810.8 668.4)"/></clipPath><clipPath id="ck"><path class="a" d="M735.821-634.463s-4.339.128-6.189-.882l5.959,3.741Z" transform="translate(-729.631 635.345)"/></clipPath><clipPath id="cl"><path class="b" d="M616.21-684.364h90.245V-778H616.21Z" transform="translate(-616.21 778)"/></clipPath><clipPath id="cm"><path class="a" d="M965.616-723.254c0,5-3.214,9.051-7.179,9.051s-7.179-4.052-7.179-9.051,3.214-9.051,7.179-9.051,7.179,4.052,7.179,9.051" transform="translate(-951.258 732.305)"/></clipPath><clipPath id="cn"><path class="b" d="M858-715.5h70.784v-67.3H858Z" transform="translate(-858 782.8)"/></clipPath><clipPath id="co"><path class="b" d="M913.167-681.978l-.3-10.4s12.6,1.006,15.3-.4c0,0,3.3-17.017-.635-26.44l-.08-.367-26.6-3.118-1.491,15.3c-.9-2.649-8.291-5.652-10.223-1.859-4.189,8.219,10.789,13.753,10.789,13.753l-1.521,13.653" transform="translate(-888.4 722.697)"/></clipPath><clipPath id="cq"><path class="a" d="M933.533-655.491l-8.5-1.826,8.459,5.727Z" transform="translate(-925.034 657.317)"/></clipPath><clipPath id="cs"><path class="a" d="M959.367-688.046l2.937,7.2-3.52.045Z" transform="translate(-958.784 688.046)"/></clipPath><clipPath id="cu"><path class="a" d="M948.367-689.308a1.782,1.782,0,0,1-1.434,2.072,1.779,1.779,0,0,1-2.067-1.437,1.783,1.783,0,0,1,1.434-2.072,1.78,1.78,0,0,1,2.067,1.437" transform="translate(-944.836 690.774)"/></clipPath><clipPath id="cw"><path class="a" d="M971.01-689.308a1.782,1.782,0,0,1-1.434,2.072,1.779,1.779,0,0,1-2.067-1.437,1.783,1.783,0,0,1,1.434-2.072,1.78,1.78,0,0,1,2.067,1.437" transform="translate(-967.98 690.774)"/></clipPath><clipPath id="cy"><path class="b" d="M905.872-718.386a12.429,12.429,0,0,0-7.808-6.032,36.616,36.616,0,0,1-1.5-6.421c-.938-6.246,3.593-11.946,7.254-13.582,3.705-1.656,10.094-3.951,19.445-.836,6.287,2.1,10.306-2.922,14.005-.779,6.322,3.663.442,19.7-15.588,15.626-11.466-2.914-11.761-2.183-11.859-.065-.318,6.847-1.383,10.876-3.947,12.088Z" transform="translate(-896.438 746.8)"/></clipPath><clipPath id="da"><path class="a" d="M948.9-670.819a4.155,4.155,0,0,0,3.572,2.009" transform="translate(-948.904 670.819)"/></clipPath><clipPath id="dd"><path class="b" d="M864.843-174.409l2.424,7.808s18.929-7.762,28.667-4.817l-32.812,18.995-8.542-21.444ZM775.6-197.574l-10.614,9.726a113.713,113.713,0,0,1,2.241,12.575,103.892,103.892,0,0,1,.371,16.812l-18.4-32.1,22.716-16.854Z" transform="translate(-749.2 207.412)"/></clipPath><clipPath id="de"><path class="b" d="M704.4-390.185H911.87V-638.8H704.4Z" transform="translate(-704.4 638.8)"/></clipPath><clipPath id="df"><path class="b" d="M867.4-172.188l10.147-.913,2,6.489-8.4,3.5Zm-83.362-35.245,1.167,12.325-7.939,7.248-6.3-9.686Z" transform="translate(-770.965 207.433)"/></clipPath><clipPath id="dh"><path class="b" d="M858.485-459.034l28.307,126.455-7.8,1.988h0l-9.076,2.317-.045.01-3.142.8s-14.422-45.456-27.118-86.008a139.734,139.734,0,0,1-10.485,14.825c-27.821,34.326-44.844,49-44.844,49l-2.531-3.812-.007-.01-6.085-9.161-4.4-6.625s38.1-35.928,55.239-86.47c-3.013-9.84-5.1-16.865-5.638-19.112-3.072-12.817-3.135-18.689-3.135-19.157h46.145a189.356,189.356,0,0,1-5.384,34.96Z" transform="translate(-771.258 493.995)"/></clipPath><clipPath id="dj"><path class="a" d="M946.934-332.578l-7.8,1.988h0l-9.077,2.317-.045.01-3.142.8s-14.422-45.456-27.118-86.008c-4.955-15.831-9.645-30.912-13.114-42.255-3.013-9.84-5.1-16.864-5.638-19.112-3.072-12.817-3.135-18.689-3.135-19.157H910.8l7.824,34.96Z" transform="translate(-877.866 493.995)"/></clipPath><clipPath id="dl"><path class="b" d="M921.433-646.576l-.174-3a41.661,41.661,0,0,1,.275-4.348c.272-2.257,1.841-4.925.181-8.909s2.308-1.232,3.187.661c.732,1.578.345,4.9,1.245,6.113a5.553,5.553,0,0,0,1.266-.948l8.553-11.014a.937.937,0,0,1,1.193-.263l.46.249a.918.918,0,0,1,.328,1.329c-1.67,2.433-6.845,9.571-6.705,9.643l.227.273,10.046-10.516a.937.937,0,0,1,1.227-.145l.6.415a.911.911,0,0,1,.206,1.319c-2,2.561-9.495,10.692-9.352,10.772l.3.287,9.352-8.2a.938.938,0,0,1,1.28-.1l.457.37a.916.916,0,0,1,.133,1.3l-8.832,8.245.255.4,7.668-5.348a.94.94,0,0,1,1.238,0l.213.19a.919.919,0,0,1,.091,1.288c-1.123,1.319-4.61,3.527-7.35,6.251-2.127,2.115-3.17,4.119-6.14,6.493a18.8,18.8,0,0,1-3.442,2.091Zm-68.939-6.893s5.909-.011,10.174-.026a36.561,36.561,0,0,1,9.627,1.775s2.791,6.257-6.9,5.69S852.494-653.469,852.494-653.469ZM810.928-606.1c-.214-7.881,9.245-22.053,9.245-22.053l16.558,7.355-6.813,14.484,18.734,26.068-7.712,6.27S811.181-596.805,810.928-606.1Z" transform="translate(-810.925 668.4)"/></clipPath><clipPath id="dn"><path class="b" d="M846.341-572.306l4.607,6.169-13.876,12.07s-25.464-18.625-26.25-33.229c-.5-9.3,7.653-22.579,7.653-22.579s10.235-16.324,22.066-21.833c2.428-1.131,8.314-2.074,11.883-2.463,1.094-.119.44.306.815,1.026a16.176,16.176,0,0,0,2.413,2.7,14.624,14.624,0,0,0,6.928,3.315,26,26,0,0,0,5.357.35,7.35,7.35,0,0,0,3.066-1.1,4.4,4.4,0,0,0,1.221-1.442c.289-.665.274-.475.274-1.088a2.169,2.169,0,0,0-.092-.815c-.06-.292-.06-.468-.1-.619-.157-.668-.087-.577-.087-.577,6.984,2.105,10.522,2.884,13.066,5.947l19.444,13.618,13.3-17.324,17.166,11.5s-15.2,28.259-26.214,31.383c-8.873,2.517-17.862-5.31-21.023-8.449l3.755,19.023c.6,3.284-2.28,4.527-4.848,4.411Z" transform="translate(-810.8 634.189)"/></clipPath><clipPath id="dq"><path class="b" d="M665.926-698.91a7.352,7.352,0,0,1,.1,1.234c0,.011,0,.021,0,.032a18.287,18.287,0,0,1,4.759,15.029,18.353,18.353,0,0,1-20.676,15.563l-17.47-2.465a18.352,18.352,0,0,1-15.563-20.675,18.352,18.352,0,0,1,12.2-14.748A13.044,13.044,0,0,1,627.215-714a13.155,13.155,0,0,1,11.549-11.193,11.526,11.526,0,0,1-.383-4.968h0a11.668,11.668,0,0,1,13.145-9.895,11.526,11.526,0,0,1,4.411,1.58,25.365,25.365,0,0,1,12.676-3.334c13.088,0,23.7,9.634,23.7,21.518s-10.61,21.518-23.7,21.518a26.354,26.354,0,0,1-2.687-.137Z" transform="translate(-616.9 741.81)"/></clipPath><clipPath id="ds"><path class="b" d="M711.876-674.818c-2.264-1.978-5.986-2.947-5.991-6.365a3.145,3.145,0,0,1,3.291-3.283c3.284-.005,3.025,3.711,2.986,4.124l0,.021h0l0,.016a1.765,1.765,0,0,0,1.121.058c2.663.03,9.428-.777,13.2-9.2a14.157,14.157,0,0,0,2.663,2.189,15.057,15.057,0,0,0,9.8,2.2c-.218,4.251-1.465,15.043-6.846,18.622-2.212,1.471-6.24,1.653-9.672,1.455l-.787,9.747s-10.482-4.569-10.914-5.815a7.311,7.311,0,0,0,5.507-7.084,7.309,7.309,0,0,0-4.354-6.686Z" transform="translate(-705.885 689.441)"/></clipPath><clipPath id="du"><path class="a" d="M764.961-668.5l2.484,6.021-2.881-.058Z" transform="translate(-764.563 668.495)"/></clipPath><clipPath id="dw"><path class="a" d="M755.6-670.827c-.062,1.2-.769,2.14-1.58,2.093s-1.418-1.06-1.356-2.262.769-2.14,1.58-2.093,1.418,1.06,1.356,2.262" transform="translate(-752.663 673.091)"/></clipPath><clipPath id="dy"><path class="a" d="M772.666-671.581c-.054,1.037-.663,1.844-1.362,1.8s-1.222-.913-1.169-1.95.663-1.845,1.362-1.8,1.222.913,1.169,1.95" transform="translate(-770.132 673.532)"/></clipPath><clipPath id="dz"><path class="b" d="M616.21-697.3h77.778V-778H616.21Z" transform="translate(-616.21 778)"/></clipPath><clipPath id="eb"><path class="a" d="M735.8-634.463s-4.34.128-6.189-.882l5.959,3.741Z" transform="translate(-729.615 635.345)"/></clipPath><clipPath id="ed"><path class="b" d="M711.893-550.319a66.054,66.054,0,0,1,4.216,5.26,33.024,33.024,0,0,1,1.5,7.373c-.048,1.041-3.169,5.718-3.169,5.718-1.937-.475-.672-2.89-.672-2.89s-1.735,1.467-2.456,1.442c-6.793-.232-6.429-3.671-6.269-4.1.361-.967,2.174.139,2.174.139s-3.487-7.073-2.647-12.022l-.2.025-10.7-17.041-.741-6.64-29.138-.43a29.489,29.489,0,0,0-.369-6.638c-.809-5.132-5.743-14.663-5.743-14.663l-7.625,11.525-5.546,30.07.088-.057,2.526,8.077s.254,3.377.3,5.363.021,1.513,1.134,4.579c.776,2.137-2.3,1.265-3.078.043-.805-1.261-.815-6.158-2.411-5.32s-2.506,5.691-2.6,10.336c-.015.73-.606.942-1.009,1.119-.654.287-1.3-2.31-1.3-2.31a.954.954,0,0,1-1.372.477,9.915,9.915,0,0,1-1.2-2.207,8.456,8.456,0,0,1-1.046-2.129,19.664,19.664,0,0,1-.621-6.525,40.165,40.165,0,0,1,2.953-8.643c-.023-.487-1.123-24.929,3.921-39.239,4.457-12.643,11.246-26.372,17.6-30.373,6.531-4.115,12.415-3.027,17.878-2.742,9.444.5,14.116.4,18.338,4.272,8.806,8.085,5.759,40.029,5.759,40.029l11.659,28.108-.136.017Z" transform="translate(-633.84 623.088)"/></clipPath><clipPath id="ee"><path class="b" d="M626.14-522.034h103.7V-640.17H626.14Z" transform="translate(-626.14 640.17)"/></clipPath><clipPath id="eg"><path class="b" d="M718.036-623.028l1.006.03s0,0,0,.014c0,.085,0,.187.008.278,0,.043.008.08.014.108.122.645.7,5.274,1.759,13.986l-1,.121c-1.046-8.638-1.634-13.31-1.749-13.919a2.06,2.06,0,0,1-.028-.21c-.011-.131-.014-.264-.012-.38Z" transform="translate(-718.035 623.028)"/></clipPath><clipPath id="ei"><path class="b" d="M751.714-615.64a53.585,53.585,0,0,1,4.2,6.431c.428.767.8,1.48,1.122,2.12.112.225.209.424.291.6.05.1.083.177.1.216l-.9.429c-.015-.034-.047-.1-.094-.2-.079-.167-.174-.361-.283-.579-.312-.626-.68-1.325-1.1-2.078a52.572,52.572,0,0,0-4.115-6.308,32.315,32.315,0,0,0-5.323-5.59l-1.27-1.018,1.611.109a.689.689,0,0,1,.507.3A33.741,33.741,0,0,1,751.714-615.64Z" transform="translate(-744.335 621.62)"/></clipPath><clipPath id="el"><path class="b" d="M725.291-555.592l-28.95-.426a26.879,26.879,0,0,0-.369-6.638c-.71-4.213-3.907-10.4-4.44-12.015,0,0,.493,1.569,2.308-.526,2.6-3,11.532-16.926,11.532-16.926s8.431,8.521,15.2,8.259c4.664-.18,6.333-7.4,6.333-7.4,7.474,16.244-.775,14.225-1.611,35.672" transform="translate(-691.532 592.124)"/></clipPath><clipPath id="en"><path class="b" d="M686.192-160.81s15.106-7.06,23.456-4.4l-26.163,17.662L679.726-157.8ZM570.971-187.578l-9.074,8a71.636,71.636,0,0,1,.185,10.088,120.411,120.411,0,0,1-1.988,15.367l-9.413-27.938L568.545-196.4Z" transform="translate(-550.68 196.402)"/></clipPath><clipPath id="eo"><path class="b" d="M550.68-338.979H745.336v-211.1H550.68Z" transform="translate(-550.68 550.08)"/></clipPath><clipPath id="ep"><path class="b" d="M633.047-506.594l7.889-3.446h3.1l1.319,4.366,8.31.621c-.047-1.169-.531,5.575-2.933,17.156l20.4,67.446,25.01,82.705-6.464,3.007s-21.419-45.832-39.364-85.713c-4.245-9.441-8.3-18.545-11.823-26.63A226.522,226.522,0,0,1,615.163-402.9c-20.384,29.843-43.319,46.39-43.319,46.39L568.313-365s47.553-38.941,57.3-142.154Z" transform="translate(-568.313 510.04)"/></clipPath><clipPath id="er"><path class="b" d="M717.2-420.452H637.822s5.41-39.7,15.1-66.018c6.427-17.458,12.213-22.355,14.13-23.57h27.728c.6,1.379,6.363,14.908,12.605,41.673,7.9,33.847,9.82,47.915,9.82,47.915" transform="translate(-637.822 510.04)"/></clipPath><clipPath id="et"><path class="a" d="M1155.294-1103.249a66.649,66.649,0,0,1-66.547,66.751,66.65,66.65,0,0,1-66.547-66.751A66.65,66.65,0,0,1,1088.747-1170a66.649,66.649,0,0,1,66.547,66.751" transform="translate(-1022.2 1170)"/></clipPath><clipPath id="eu"><path class="b" d="M-128-1236.136H1406.257V-2089H-128Z" transform="translate(128 2089)"/></clipPath><clipPath id="ev"><path class="a" d="M674.87-149.531a3.744,3.744,0,0,1-3.138-4.265A3.744,3.744,0,0,1,676-156.934a3.744,3.744,0,0,1,3.139,4.265A3.744,3.744,0,0,1,674.87-149.531Z" transform="translate(-671.688 156.977)"/></clipPath><clipPath id="ew"><path class="b" d="M628.8-182.279H519V-284H628.8Z" transform="translate(-519 284)"/></clipPath><clipPath id="ex"><path class="a" d="M615.859-147.088a1.545,1.545,0,0,1-1.3-1.76,1.545,1.545,0,0,1,1.76-1.3,1.545,1.545,0,0,1,1.3,1.76A1.545,1.545,0,0,1,615.859-147.088Z" transform="translate(-614.546 150.161)"/></clipPath><clipPath id="ez"><path class="a" d="M524-93.905a3.566,3.566,0,0,1-2.989-4.062,3.566,3.566,0,0,1,4.062-2.989,3.566,3.566,0,0,1,2.989,4.062A3.567,3.567,0,0,1,524-93.905Z" transform="translate(-520.973 100.998)"/></clipPath><clipPath id="fb"><path class="b" d="M635.353-247.727H622.775l-4.753-10.019h22.085Zm5.034-10.02H617.741a2.377,2.377,0,0,1-2.377-2.377,2.377,2.377,0,0,1,2.377-2.377h22.645a2.377,2.377,0,0,1,2.377,2.377A2.377,2.377,0,0,1,640.387-257.746Z" transform="translate(-615.365 262.5)"/></clipPath><clipPath id="fd"><path class="a" d="M638.37-242.481H625.792L621.038-252.5h22.084Z" transform="translate(-621.038 252.5)"/></clipPath><clipPath id="ff"><path class="b" d="M635.918-246.723H538V-357h97.918Z" transform="translate(-538 357)"/></clipPath><clipPath id="fg"><path class="a" d="M637.244-267.846H602.756l-5.259-5.674H642.5Z" transform="translate(-597.497 273.519)"/></clipPath><clipPath id="fj"><path class="b" d="M613.576-262.27a12.458,12.458,0,0,0,11.1-7.322l10.54-23.43A12.494,12.494,0,0,0,629-309.483a12.445,12.445,0,0,0-16.426,6.231l-10.54,23.43a12.483,12.483,0,0,0,.8,11.708,8.864,8.864,0,0,0-5.878,5.206,9.087,9.087,0,0,0-.315.917,1.493,1.493,0,0,0,2.348,1.6,4.322,4.322,0,0,1,4.1-.913c2.521.92,3.47,4.68,2.119,8.4l-.009.024a1.5,1.5,0,0,0,1.687,2,8.846,8.846,0,0,0,6.572-5.662,8.841,8.841,0,0,0,.114-5.727Zm-55.888-74.372v11.457a9.471,9.471,0,0,0,9.433,9.454h44.328a9.471,9.471,0,0,0,9.433-9.454v-12.346a9.48,9.48,0,0,0,9.036-9.479,9.479,9.479,0,0,0-9.469-9.489,9.41,9.41,0,0,0-4.971,1.411,9.329,9.329,0,0,0-4.03-.912H567.121a9.334,9.334,0,0,0-4.43,1.114q-.3-.109-.614-.2a9.465,9.465,0,0,0-11.707,6.514,9.492,9.492,0,0,0,6.5,11.732q.408.117.816.2Zm-1.381,65.35a7.25,7.25,0,0,0-.727,5.028,7.238,7.238,0,0,0,4.7,5.317,1.225,1.225,0,0,0,1.586-1.44l0-.02c-.685-3.166.5-6.111,2.641-6.579a3.529,3.529,0,0,1,3.223,1.193,1.22,1.22,0,0,0,2.078-1.035,7.484,7.484,0,0,0-.154-.779,7.212,7.212,0,0,0-2.839-4.116,10.222,10.222,0,0,0,2.827-8.925l-3.565-20.728a10.178,10.178,0,0,0-11.73-8.3,10.22,10.22,0,0,0-8.277,11.776l3.565,20.728a10.2,10.2,0,0,0,6.675,7.88Z" transform="translate(-545.918 356.499)"/></clipPath><clipPath id="fl"><path class="a" d="M565.707-271.292a7.249,7.249,0,0,0-.727,5.028,7.238,7.238,0,0,0,4.7,5.317,1.225,1.225,0,0,0,1.586-1.44l0-.02c-.684-3.166.5-6.111,2.641-6.579a3.53,3.53,0,0,1,3.224,1.193,1.22,1.22,0,0,0,2.078-1.035,7.469,7.469,0,0,0-.154-.779,7.211,7.211,0,0,0-2.839-4.116,10.221,10.221,0,0,0,2.827-8.925l-3.565-20.728a10.179,10.179,0,0,0-11.73-8.3,10.22,10.22,0,0,0-8.277,11.776l3.565,20.728A10.2,10.2,0,0,0,565.707-271.292Zm40.649,8.384a9.078,9.078,0,0,0-.315.917,1.493,1.493,0,0,0,2.348,1.6,4.322,4.322,0,0,1,4.1-.913c2.521.92,3.47,4.68,2.119,8.4l-.009.024a1.5,1.5,0,0,0,1.686,2,8.846,8.846,0,0,0,6.572-5.662,8.868,8.868,0,0,0-5.545-11.449A8.88,8.88,0,0,0,606.356-262.908Zm34.663-29.4a2.439,2.439,0,0,0-1.208-3.227,2.43,2.43,0,0,0-3.22,1.211A2.439,2.439,0,0,0,637.8-291.1,2.429,2.429,0,0,0,641.019-292.306Zm-2.783,6.139a2.439,2.439,0,0,0-1.208-3.226,2.43,2.43,0,0,0-3.22,1.211,2.439,2.439,0,0,0,1.208,3.227A2.429,2.429,0,0,0,638.237-286.168Zm-2.85,6.287a2.439,2.439,0,0,0-1.208-3.226,2.429,2.429,0,0,0-3.219,1.211,2.439,2.439,0,0,0,1.208,3.226A2.429,2.429,0,0,0,635.387-279.881Zm-55.75-56.678a12.244,12.244,0,0,0,10.2,12.08c.083-.014.164-.029.247-.045a12.24,12.24,0,0,0,9.953-12.035,12.24,12.24,0,0,0-9.953-12.035c-.083-.017-.164-.031-.247-.045A12.244,12.244,0,0,0,579.637-336.559Zm19.356.016a7.087,7.087,0,0,1-7.08,7.095,7.087,7.087,0,0,1-7.08-7.095,7.087,7.087,0,0,1,7.08-7.1A7.087,7.087,0,0,1,598.993-336.542Zm40.376-10.468A9.479,9.479,0,0,0,629.9-356.5a9.479,9.479,0,0,0-9.469,9.489,9.479,9.479,0,0,0,9.469,9.489A9.479,9.479,0,0,0,639.369-347.01Zm-2.285-1.759a4.6,4.6,0,0,1-4.593,4.6,4.6,4.6,0,0,1-4.593-4.6,4.6,4.6,0,0,1,4.593-4.6A4.6,4.6,0,0,1,637.085-348.769Zm-64.975-6.092q-.3-.109-.614-.2a9.465,9.465,0,0,0-11.707,6.514,9.492,9.492,0,0,0,6.5,11.732q.408.117.816.2v-9.9A9.482,9.482,0,0,1,572.11-354.861Zm34.412,28.128a2.434,2.434,0,0,0-2.432-2.437,2.434,2.434,0,0,0-2.432,2.437,2.434,2.434,0,0,0,2.432,2.437A2.434,2.434,0,0,0,606.522-326.733Zm7.028,0a2.434,2.434,0,0,0-2.431-2.437,2.434,2.434,0,0,0-2.432,2.437,2.434,2.434,0,0,0,2.432,2.437A2.434,2.434,0,0,0,613.55-326.733Z" transform="translate(-555.319 356.499)"/></clipPath><clipPath id="fn"><path class="a" d="M677.578-315.953a12.244,12.244,0,0,1-10.2-12.08,12.244,12.244,0,0,1,10.2-12.08,12.24,12.24,0,0,0-2.018-.167,12.234,12.234,0,0,0-12.221,12.247,12.234,12.234,0,0,0,12.221,12.247,12.25,12.25,0,0,0,2.018-.167Z" transform="translate(-663.34 340.281)"/></clipPath><clipPath id="fp"><path class="b" d="M639.107-404.368H593V-450h46.107Z" transform="translate(-593 450)"/></clipPath><clipPath id="fq"><path class="a" d="M668.189-390.22h6.9V-400.4h-6.9a5.131,5.131,0,0,0-5.142,5.089,5.131,5.131,0,0,0,5.142,5.089" transform="translate(-663.046 400.398)"/></clipPath><clipPath id="fs"><path class="b" d="M612.352-438.832a3.719,3.719,0,0,0-3.7-3.21,3.712,3.712,0,0,0-3.731,3.692,3.712,3.712,0,0,0,3.731,3.692,3.734,3.734,0,0,0,3.395-2.157l2.6-1.97,3.541,2.681,3.538-2.68,3.539,2.681,3.538-2.681,3.539,2.681,1.953-1.48a3.723,3.723,0,0,0,3.651,2.926,3.712,3.712,0,0,0,3.731-3.692,3.712,3.712,0,0,0-3.731-3.692,3.728,3.728,0,0,0-3.568,2.609l-2.036,1.542-3.539-2.681-3.538,2.681-3.539-2.681-3.538,2.681-3.54-2.68ZM610-404.549h26.857a3.852,3.852,0,0,0,3.872-3.831v-17.556a3.852,3.852,0,0,0-3.872-3.831H610a3.852,3.852,0,0,0-3.872,3.831v17.556A3.852,3.852,0,0,0,610-404.549Zm2.5,3.475h21.851a1.747,1.747,0,0,0,1.756-1.737,1.747,1.747,0,0,0-1.756-1.737H612.5a1.747,1.747,0,0,0-1.756,1.737A1.747,1.747,0,0,0,612.5-401.074Z" transform="translate(-604.921 442.042)"/></clipPath><clipPath id="fu"><path class="b" d="M637.056-437.161l3.539,2.681,1.953-1.465.092-1.87-2.045,1.549-3.539-2.681-3.538,2.681-3.539-2.681-3.538,2.681-3.541-2.68-2.265,1.786-.377,1.982,2.642-1.982,3.541,2.681,3.538-2.68,3.539,2.681Z" transform="translate(-620.258 438.947)"/></clipPath><clipPath id="fw"><path class="a" d="M618.393-359.69h21.851A1.747,1.747,0,0,0,642-361.428a1.747,1.747,0,0,0-1.756-1.737H618.393a1.747,1.747,0,0,0-1.756,1.737,1.747,1.747,0,0,0,1.756,1.737" transform="translate(-616.638 363.165)"/></clipPath><clipPath id="fy"><path class="a" d="M600.392-390.22h-6.9V-400.4h6.9a5.131,5.131,0,0,1,5.143,5.089,5.131,5.131,0,0,1-5.143,5.089" transform="translate(-593.492 400.398)"/></clipPath><clipPath id="ga"><path class="a" d="M650.469-397.47c0,3.891,2.547,7.046,5.688,7.046s5.688-3.155,5.688-7.046-2.547-7.046-5.688-7.046-5.688,3.155-5.688,7.046" transform="translate(-650.469 404.516)"/></clipPath><clipPath id="gc"><path class="a" d="M659.485-390.424h-2.673v-14.093h2.673Z" transform="translate(-656.812 404.516)"/></clipPath><clipPath id="ge"><path class="a" d="M644.845-397.47c0,3.891,2.547,7.046,5.688,7.046s5.688-3.155,5.688-7.046-2.547-7.046-5.688-7.046-5.688,3.155-5.688,7.046" transform="translate(-644.845 404.516)"/></clipPath><clipPath id="gh"><path class="a" d="M654.514-393.425a2.28,2.28,0,0,0,2,2.48,2.28,2.28,0,0,0,2-2.48,2.28,2.28,0,0,0-2-2.481,2.28,2.28,0,0,0-2,2.481" transform="translate(-654.514 395.906)"/></clipPath><clipPath id="gj"><path class="a" d="M1650.875-1168.656c0,39.67-25.924,57.473-57.776,57.473s-57.773-17.8-57.773-57.473c0-73.9,31.53-142.905,57.773-142.905s57.776,69.009,57.776,142.905" transform="translate(-1535.326 1311.561)"/></clipPath><clipPath id="gk"><path class="b" d="M1271-1082.326h331.1V-1333H1271Z" transform="translate(-1271 1333)"/></clipPath><clipPath id="gl"><path class="a" d="M1310.629-1213.24c-1.772-5.311-11.483-4.412-11.484-19.222,0-22.3,30.671-19.753,32.48-36.555s-17.9-16.4-18.512-30.571S1327.49-1343,1350.23-1343c17.931,0,3.079,22.562,17.55,32.652s31-2.836,39.178,13.03c11.267,21.855-17.543,48.1-14.7,64.857s19.732,12.793,20.249,31.2-24.018,21.649-21.706,37.434c1.457,9.951,16.984,6.628,17.8,26.25.69,16.612-52.658,37.168-92.732,3.363s1.525-58.756-5.237-79.027" transform="translate(-1298.2 1343)"/></clipPath></defs><g transform="translate(-1018.121 -474.82)"><g transform="translate(2080.738 658.187)"><g class="e" transform="translate(0.684 0)"><g class="f" transform="translate(-524.428 -545.433)"><path class="g" d="M1316.9-529.311h-25.572v92.288H1316.9Z" transform="translate(-768.979 1072.665)"/></g></g><g class="h" transform="translate(21.587 19.36)"><g class="i" transform="translate(-766.659 -411.241)"><path class="g" d="M1291.328-529.311h19.281v69.582h-19.281Z" transform="translate(-526.237 938.984)"/></g></g><g class="j" transform="translate(0 80.648)"><g class="k" transform="translate(-997.564 -615.242)"><path class="l" d="M1245-361.429h46.986v31.579H1245Z" transform="translate(-249.515 974.592)"/></g></g><g transform="translate(0 97.523)"><path class="m" d="M0,.3H42.828" transform="translate(0 -0.3)"/></g><g transform="translate(0.994 90.432)"><path class="m" d="M0,.3H40.977" transform="translate(0 -0.3)"/></g></g><g class="n" transform="translate(2217.368 575.152)"><g class="o" transform="translate(-144.114 -71.08)"><path class="p" d="M1573.574-755.063h6.912v190.972h-6.912Z" transform="translate(-1431.539 824.064)"/></g></g><g transform="translate(2132.618 525.278)"><g transform="translate(0 49.875)"><g class="q"><g class="o" transform="translate(-59.365 -71.08)"><path class="g" d="M1369.764-755.063h88.907v190.972h-88.907Z" transform="translate(-1312.478 824.064)"/></g></g><g class="r" transform="translate(10.073 8.242)"><g class="o" transform="translate(-69.438 -79.322)"><path class="s" d="M1393.989-735.243h71.581v182.73h-71.581Z" transform="translate(-1326.63 812.485)"/></g></g><g class="t" transform="translate(34.558 125.135)"><g class="o" transform="translate(-93.923 -196.215)"><path class="g" d="M1452.872-454.13h22.612v46.912h-22.612Z" transform="translate(-1361.028 648.266)"/></g></g><g class="u" transform="translate(34.558 25.77)"><g class="o" transform="translate(-93.923 -96.85)"><path class="g" d="M1452.872-693.089h22.612v46.912h-22.612Z" transform="translate(-1361.028 787.86)"/></g></g><g class="v" transform="translate(34.558 75.453)"><g class="o" transform="translate(-93.923 -146.532)"><path class="g" d="M1452.872-573.61h22.612V-526.7h-22.612Z" transform="translate(-1361.028 718.063)"/></g></g><g class="w" transform="translate(7.32 8.242)"><g class="o" transform="translate(-66.685 -79.322)"><path class="p" d="M1387.367-735.243h6.911v182.73h-6.911Z" transform="translate(-1322.761 812.485)"/></g></g><g class="x" transform="translate(12.851 81.279)"><g class="o" transform="translate(-72.216 -152.359)"><path class="p" d="M1400.669-559.6h9.936v23.549h-9.936Z" transform="translate(-1330.532 709.878)"/></g></g></g><g transform="translate(0 0)"><g class="y" transform="translate(3.144 0.268)"><g class="o" transform="translate(-62.509 -21.473)"><path class="p" d="M1377.326-874.36h88.517v47.3h-88.517Z" transform="translate(-1316.896 893.754)"/></g></g><g class="z"><g class="o" transform="translate(-59.365 -21.205)"><path class="g" d="M1369.764-875h88.517v47.3h-88.517Z" transform="translate(-1312.478 894.13)"/></g></g><g class="aa" transform="translate(0 0.268)"><g class="o" transform="translate(-59.365 -21.473)"><path class="g" d="M1369.764-874.36h88.517v47.3h-88.517Z" transform="translate(-1312.478 893.754)"/></g></g><g class="ab" transform="translate(7.39 7.86)"><g class="o" transform="translate(-66.755 -29.066)"><path class="p" d="M1387.536-856.1H1457.6v32.471h-70.067Z" transform="translate(-1322.86 883.088)"/></g></g><g class="ac" transform="translate(10.796 7.86)"><g class="o" transform="translate(-70.161 -29.066)"><path class="ad" d="M1395.727-856.1h70.067v32.471h-70.067Z" transform="translate(-1327.645 883.088)"/></g></g></g></g><g transform="translate(2224.198 655.017)"><g class="ae" transform="translate(18.426 0)"><g class="k" transform="translate(-1159.45 -531.424)"><path class="s" d="M1634.313-563h24.866v31.769h-24.866Z" transform="translate(-476.942 1092.345)"/></g></g><g transform="translate(28.858 14.507)"><path class="af" d="M.3,71.809V0" transform="translate(-0.3)"/></g><g class="ag" transform="translate(0 29.658)"><g class="k" transform="translate(-1141.023 -561.082)"><path class="s" d="M1590-491.677h26.292v26.292H1590Z" transform="translate(-451.056 1050.68)"/></g></g><g class="ah" transform="translate(31.5 43.762) rotate(-3)"><g class="ai" transform="translate(-1173.08 -574.55)"><path class="s" d="M0,0H25.576V25.576H0Z" transform="translate(1172.526 573.476)"/></g></g><g transform="translate(29.164 51.076)"><path class="af" d="M18.143,0,0,18.195"/></g><g transform="translate(28.806 33.677)"><path class="af" d="M13.259,0,0,13.1"/></g><g transform="translate(15.039 62.438)"><path class="af" d="M0,0,13.851,14.007"/></g><g transform="translate(10.265 40.016)"><path class="af" d="M0,0,18.516,18.736"/></g><g class="aj" transform="translate(7.798 80.878)"><g class="k" transform="translate(-1148.822 -612.303)"><path class="l" d="M1608.754-368.5h46.277v34.257h-46.277Z" transform="translate(-462.012 978.722)"/></g></g><g transform="translate(7.798 88.989)"><path class="af" d="M42.118.3H0" transform="translate(0 -0.3)"/></g><g transform="translate(7.798 97.124)"><path class="af" d="M42.118.3H0" transform="translate(0 -0.3)"/></g></g><g transform="translate(1597.976 677.535)"><g class="ak" transform="translate(60.701 37.979)"><g class="al" transform="translate(-60.701 -37.979)"><path class="g" d="M1280.792-746.056h38.114v51.867h-38.114Z" transform="translate(-1222.806 781.32)"/></g></g><g class="al"><g transform="translate(77.043 47.878)"><path class="am" d="M.15,0V29.6" transform="translate(-0.15)"/></g><g transform="translate(84.425 47.878)"><path class="am" d="M2.058,0,0,29.6"/></g><g transform="translate(67.603 47.878)"><path class="am" d="M0,0,2.058,29.6"/></g></g><g class="an" transform="translate(59.457 35.83)"><g class="al" transform="translate(-59.457 -35.83)"><path class="g" d="M1278.5-750.013h40.489v10.338H1278.5Z" transform="translate(-1221.758 783.128)"/></g></g><g class="al"><g transform="translate(60.702 41.817)"><path class="ao" d="M0,.15H32.684" transform="translate(0 -0.15)"/></g></g><g class="ap" transform="translate(70.594 33.331)"><g class="al" transform="translate(-70.594 -33.331)"><path class="g" d="M1299.011-754.616h6.846v8.574h-6.846Z" transform="translate(-1231.132 785.232)"/></g></g><g class="aq" transform="translate(81.576 33.037)"><g class="al" transform="translate(-81.576 -33.037)"><path class="g" d="M1319.236-755.157h6.846v8.574h-6.846Z" transform="translate(-1240.375 785.479)"/></g></g><g class="ar" transform="translate(70.594 32.09)"><g class="al" transform="translate(-70.594 -32.09)"><path class="g" d="M1299.011-756.9h17.828v7.172h-17.828Z" transform="translate(-1231.132 786.276)"/></g></g></g><g transform="translate(1018.121 658.439)"><g class="as" transform="translate(91.418 152.602)"><g class="at" transform="translate(-145.081 -244.854)"><path class="p" d="M327.861-290.229h41.262v41.261H327.861Z" transform="translate(-184.959 532.904)"/></g></g><g class="au" transform="translate(241.258 152.602)"><g class="at" transform="translate(-294.921 -244.854)"><path class="p" d="M671.64-290.229H712.9v41.261H671.64Z" transform="translate(-378.898 532.904)"/></g></g><g class="av" transform="translate(0 7.782)"><g class="aw" transform="translate(-53.663 -120.134)"><path class="s" d="M118.12-596.04H351.771v166.282H118.12Z" transform="translate(-66.636 713.828)"/></g></g><g class="ax" transform="translate(127.445 19.311)"><g class="at" transform="translate(-181.109 -111.563)"><path class="ad" d="M410.519-596.04H516.725v154.418H410.519Z" transform="translate(-231.59 705.424)"/></g></g><g class="ay" transform="translate(84.759 19.311)"><g class="at" transform="translate(-138.423 -111.563)"><path class="ad" d="M312.585-596.04h69.79v110.364h-69.79Z" transform="translate(-176.341 705.424)"/></g></g><g class="az" transform="translate(163.502 125.333)"><g class="at" transform="translate(-217.166 -217.585)"><path class="s" d="M493.246-352.792h96.212v48.4H493.246Z" transform="translate(-278.259 568.198)"/></g></g><g class="ba" transform="translate(236.903 125.333)"><g class="at" transform="translate(-290.567 -217.585)"><path class="l" d="M661.65-352.793h78.945v48.4H661.65Z" transform="translate(-373.262 568.199)"/></g></g><g class="bb" transform="translate(16.022 147.526)"><g class="at" transform="translate(-69.686 -239.779)"><path class="ad" d="M154.881-301.874h50.972v26.579H154.881Z" transform="translate(-87.374 539.473)"/></g></g><g class="bc" transform="translate(165.863 147.526)"><g class="at" transform="translate(-219.526 -239.779)"><path class="ad" d="M498.661-301.874h50.972v26.579H498.661Z" transform="translate(-281.314 539.473)"/></g></g><g class="bd" transform="translate(170.718 152.602)"><g class="at" transform="translate(-224.382 -244.854)"><path class="p" d="M509.8-290.229h41.262v41.261H509.8Z" transform="translate(-287.598 532.904)"/></g></g><g class="be" transform="translate(290.511 139.166)"><g class="at" transform="translate(-344.174 -231.418)"><path class="ad" d="M784.642-321.056h17.323v20.268H784.642Z" transform="translate(-442.647 550.294)"/></g></g><g class="bf" transform="translate(249.567 139.166)"><g class="at" transform="translate(-303.23 -231.418)"><path class="ad" d="M690.7-321.056h17.323v20.268H690.7Z" transform="translate(-389.653 550.294)"/></g></g><g class="bg" transform="translate(131.707 81.745)"><g class="at" transform="translate(-185.371 -173.998)"><path class="p" d="M420.3-452.8h19.392v40.849H420.3Z" transform="translate(-237.106 624.614)"/></g></g><g class="bh" transform="translate(146.74 102.561)"><g class="at" transform="translate(-200.404 -194.813)"><path class="p" d="M454.788-405.039h10.654V-385H454.788Z" transform="translate(-256.563 597.673)"/></g></g><g class="bi" transform="translate(20.878 152.602)"><g class="at" transform="translate(-74.541 -244.854)"><path class="p" d="M166.02-290.229h41.262v41.261H166.02Z" transform="translate(-93.659 532.904)"/></g></g><g class="bj" transform="translate(270.72 143.683)"><g class="at" transform="translate(-324.383 -235.936)"><path class="s" d="M739.236-310.691h17.85v11.233h-17.85Z" transform="translate(-417.032 544.447)"/></g></g><g class="bk" transform="translate(37.755 19.311)"><g class="at" transform="translate(-91.419 -111.563)"><path class="ad" d="M204.743-596.04h55.062v110.364H204.743Z" transform="translate(-115.504 705.424)"/></g></g><g class="bl" transform="translate(374.519 29.795)"><g class="bm" transform="translate(-74.786 -44.202)"><path class="bn" d="M977.383-571.986h10.633V-555.1H977.383Z" transform="translate(-904.776 614.009)"/></g></g><g class="bo" transform="translate(264.354 0)"><g class="bp" transform="translate(-49.436 -62.178)"><path class="bq" d="M724.631-640.345h10.548v8.1H724.631Z" transform="translate(-677.375 700.343)"/></g></g></g><g transform="translate(58)"><g transform="translate(1379.426 594.169)"><g class="br" transform="translate(40.648 22.009)"><g class="bs" transform="translate(-40.648 -22.009)"><path class="bt" d="M946.258-737.305h18.717v22.461H946.258Z" transform="translate(-907.79 757.135)"/></g></g><g class="bu" transform="translate(13.25 26.197)"><g class="bs" transform="translate(-13.25 -26.197)"><path class="bv" d="M883.4-727.7h45.419v45.2H883.4Z" transform="translate(-872.329 751.714)"/></g></g><g class="bw" transform="translate(29.217 54.693)"><g class="bs" transform="translate(-29.217 -54.693)"><path class="bx" d="M920.033-662.317h12.858v10.085H920.033Z" transform="translate(-892.995 714.831)"/></g></g><g class="by" transform="translate(43.928 41.299)"><g class="bs" transform="translate(-43.928 -41.3)"><path class="bz" d="M953.784-693.046h7.878v11.6h-7.878Z" transform="translate(-912.036 732.166)"/></g></g><g class="ca" transform="translate(38.505 39.429)"><g class="bs" transform="translate(-37.849 -40.111)"><path class="cb" d="M939.836-695.774h7.918v7.925h-7.918Z" transform="translate(-904.167 733.705)"/></g></g><g class="cc" transform="translate(49.005 39.429)"><g class="bs" transform="translate(-47.718 -40.111)"><path class="cb" d="M962.48-695.774H970.4v7.925H962.48Z" transform="translate(-916.941 733.705)"/></g></g><g class="cd" transform="translate(16.753 15.691)"><g class="bs" transform="translate(-16.753 -15.691)"><path class="ce" d="M891.438-751.8h47.681v32.773H891.438Z" transform="translate(-876.864 765.312)"/></g></g><g class="cf" transform="translate(39.621 48.808)"><g class="bs" transform="translate(-39.621 -48.808)"><path class="ad" d="M943.9-675.819h7.931v6.369H943.9Z" transform="translate(-906.461 722.448)"/></g></g><g class="bs" transform="translate(0 0)"><g transform="translate(39.621 48.808)"><path class="cg" d="M0,0A4.155,4.155,0,0,0,3.572,2.009"/></g><g transform="translate(35.517 37.583)"><path class="cg" d="M8.141,4.079A4.071,4.071,0,1,1,4.07,0,4.075,4.075,0,0,1,8.141,4.079Z"/></g><g transform="translate(45.766 37.583)"><path class="cg" d="M8.141,4.079A4.071,4.071,0,1,1,4.071,0,4.075,4.075,0,0,1,8.141,4.079Z"/></g><g transform="translate(43.675 41.852)"><path class="ch" d="M1.76.363H0" transform="translate(0 -0.363)"/></g><g transform="translate(25.461 41.663)"><path class="cg" d="M10.055.363H0" transform="translate(0 -0.363)"/></g></g></g><g transform="translate(1332.004 720.048)"><g class="ci" transform="translate(0 124.91)"><g class="cj" transform="translate(-19.526 -188.025)"><path class="ck" d="M744.2-212.412H895.292v59.348H744.2Z" transform="translate(-726.853 398.258)"/></g></g><g class="cl" transform="translate(9.487 124.901)"><g class="cj" transform="translate(-29.013 -188.016)"><path class="bv" d="M765.965-212.433H878.9v48.68H765.965Z" transform="translate(-739.131 398.27)"/></g></g><g class="cm" transform="translate(9.614 0)"><g class="cj" transform="translate(-29.141 -63.115)"><path class="cn" d="M766.258-498.995H886.151V-328.1H766.258Z" transform="translate(-739.296 559.93)"/></g></g><g class="co" transform="translate(56.081 0)"><g class="cj" transform="translate(-75.607 -63.115)"><path class="cp" d="M872.866-498.995h73.427V-328.1H872.866Z" transform="translate(-799.438 559.93)"/></g></g></g><g transform="translate(1358.853 644.032)"><g class="cq" transform="translate(0.054 0)"><g class="bm" transform="translate(-0.054 0)"><path class="bv" d="M805.925-673.4H945.93v98.786H805.925Z" transform="translate(-808.05 671.221)"/></g></g><g class="cr" transform="translate(0 14.911)"><g class="bm" transform="translate(0 -14.911)"><path class="cs" d="M805.8-639.189H934.564v84.482H805.8Z" transform="translate(-807.979 651.921)"/></g></g><g class="bm" transform="translate(0 0)"><g transform="translate(22.982 39.44)"><path class="ct" d="M10.836,35.146,0,19.81,13.089,0"/></g></g></g></g><g transform="translate(58)"><g transform="translate(1274.039 596.262)"><g class="cu" transform="translate(0.301 15.774)"><g class="bp" transform="translate(-0.301 -15.774)"><path class="ck" d="M611.9-746.81h79.77v79.3H611.9Z" transform="translate(-613.779 760.405)"/></g></g><g class="cv" transform="translate(39.086 38.599)"><g class="bp" transform="translate(-39.086 -38.599)"><path class="cw" d="M700.885-694.441H738.3v38.566H700.885Z" transform="translate(-663.979 730.861)"/></g></g><g class="cx" transform="translate(64.661 47.729)"><g class="bp" transform="translate(-64.661 -47.729)"><path class="bz" d="M759.563-673.5h7.24v10.379h-7.24Z" transform="translate(-697.081 719.045)"/></g></g><g class="cy" transform="translate(60.782 45.29)"><g class="bp" transform="translate(-60.782 -45.29)"><path class="cb" d="M747.663-678.091h7.3v8.718h-7.3Z" transform="translate(-690.368 721.637)"/></g></g><g class="cz" transform="translate(67.96 45.7)"><g class="da" transform="translate(-57.821 -39.243)"><path class="cb" d="M765.132-678.532h6.295v7.514h-6.295Z" transform="translate(-709.19 715.897)"/></g></g><g class="bp" transform="translate(0)"><g transform="translate(60.196 55.09)"><path class="db" d="M3.759,1.486S1.881,2.092,0,0"/></g></g><g class="dc" transform="translate(49.429 62.178)"><g class="bp" transform="translate(-49.429 -62.178)"><path class="bx" d="M724.615-640.345h10.548v8.1H724.615Z" transform="translate(-677.366 700.344)"/></g></g></g><g transform="translate(1278.367 656.336)"><g class="dd" transform="translate(3.356 7.445)"><g class="de" transform="translate(-3.356 -7.445)"><path class="cw" d="M628.84-628.089h88.125v98.417H628.84Z" transform="translate(-627.663 633.354)"/></g></g><g class="de" transform="translate(0 0)"><g transform="translate(78.116 83.716)"><path class="df" d="M0,0S.953,3.6,4.224,4.723c1.144.392.858,5.023,3.662,4.47"/></g></g><g class="dg" transform="translate(40.053 7.471)"><g class="de" transform="translate(-40.054 -7.471)"><path class="dh" d="M713.035-628.029h7.147v18.9h-7.147Z" transform="translate(-675.161 633.32)"/></g></g><g class="di" transform="translate(51.517 8.085)"><g class="de" transform="translate(-51.517 -8.085)"><path class="dh" d="M739.335-626.62h17.447v20.132H739.335Z" transform="translate(-689.998 632.526)"/></g></g><g class="de" transform="translate(0 0)"><g transform="translate(27.199 29.313)"><path class="df" d="M0,6.432,4.092,0"/></g></g><g class="dj" transform="translate(28.502 20.941)"><g class="de" transform="translate(-28.502 -20.941)"><path class="dk" d="M686.532-597.124h42.836v40.89H686.532Z" transform="translate(-660.209 615.886)"/></g></g></g><g transform="translate(1245.477 713.055)"><g class="dl" transform="translate(0 136.703)"><g class="dm" transform="translate(0 -154.154)"><path class="ck" d="M545.68-201.4H709.006v53.208H545.68Z" transform="translate(-547.859 353.377)"/></g></g><g class="dn" transform="translate(7.685 0)"><g class="dm" transform="translate(-7.686 -17.452)"><path class="cw" d="M563.313-515.04H695.5v179.659H563.313Z" transform="translate(-557.807 530.313)"/></g></g><g class="do" transform="translate(37.982 0)"><g class="dm" transform="translate(-37.982 -17.452)"><path class="ce" d="M632.822-515.04h83.741v93.947H632.822Z" transform="translate(-597.019 530.312)"/></g></g></g></g><g transform="translate(1557.174 545.45)"><g class="dp" transform="translate(0)"><g class="dq" transform="translate(-469.586 -375.195)"><path class="l" d="M1017.2-1175h137.177v137.585H1017.2Z" transform="translate(-549.656 1548.154)"/></g></g><g transform="translate(52.258 47.359)"><g transform="translate(14.085)"><path class="dr" d="M.5,0V136.36" transform="translate(-0.5)"/></g><g transform="translate(14.289 48.583)"><path class="dr" d="M0,14.7,14.7,0"/></g><g transform="translate(14.698 11.023)"><path class="dr" d="M0,7.757,7.757,0"/></g><g transform="translate(0 26.945)"><path class="dr" d="M14.289,14.289,0,0"/></g></g></g><g transform="translate(1949.24 655.982)"><g transform="translate(0 95.97)"><path class="c" d="M68.158,14.721H37.121A14.314,14.314,0,0,0,10.035,8.665,7.5,7.5,0,1,0,5.543,22.973a6.6,6.6,0,0,0,1.436.289s-.35,13,7.516,18.379c6.9,4.718,13.08,4.147,17.917,3.575,6.08-.718,10.047-1.436,10.7,8.349,1.643,24.8,2.433,44.585,2.433,44.585l9.478.165s.391-30.348,1.751-49.643c.547-7.756,4.428-7.117,9.143-6.477,5.261.713,11.558,1.426,15.427-9.512q.777-.02,1.527-.074.767.072,1.553.073A16.341,16.341,0,1,0,68.158,14.721Z" transform="translate(100.761 98.314) rotate(180)"/><path class="d" d="M.757,13.633a19.172,19.172,0,0,0-.538,2.448q-.047.306-.083.611H.1A18.905,18.905,0,0,0,0,18.811a18.894,18.894,0,0,0,.093,2.031H.13A18.929,18.929,0,0,0,37.1,23.9a19.21,19.21,0,0,0,.538-2.449q.047-.3.083-.609h.036a19.024,19.024,0,0,0,.1-2.1,18.88,18.88,0,0,0-.093-2.046h-.037A18.917,18.917,0,0,0,21.778.217,19.146,19.146,0,0,0,18.91,0,18.942,18.942,0,0,0,.757,13.633Z" transform="translate(65.164 105.992) rotate(180)"/><g class="ds" transform="translate(30.289 42.838)"><g class="dt" transform="translate(-29.734 -60.378)"><path class="d" d="M678.932-149.734H666.688v-12.243h12.243Z" transform="translate(-639.331 219.979)"/></g></g><g class="du" transform="translate(61.849 46.078)"><g class="dt" transform="translate(-61.294 -63.618)"><path class="d" d="M617.391-147.317h-7.844v-7.845h7.844Z" transform="translate(-550.629 216.402)"/></g></g><g class="dv" transform="translate(102.285 69.446)"><g class="dt" transform="translate(-101.73 -86.987)"><path class="d" d="M527.859-94.111H515.973V-106h11.887Z" transform="translate(-416.619 190.608)"/></g></g><g transform="translate(72.636 68.158)"><g transform="translate(0 0)"><ellipse class="d" cx="6.195" cy="6.195" rx="6.195" ry="6.195"/></g></g><g transform="translate(7.147 77.007)"><g transform="translate(0 0)"><ellipse class="d" cx="6.195" cy="6.195" rx="6.195" ry="6.195"/></g></g><g transform="translate(35.039 76.58)"><g transform="translate(0 0)"><ellipse class="c" cx="11.048" cy="11.048" rx="11.048" ry="11.048"/></g></g></g><g class="dw" transform="translate(37.153 88.649)"><g class="dt" transform="translate(-36.598 -10.22)"><path class="dx" d="M642.516-247.974H610.365V-267.5h32.152Z" transform="translate(-576.144 275.343)"/></g></g><g class="dy" transform="translate(39.77 93.402)"><g class="dt" transform="translate(-39.215 -14.973)"><path class="bx" d="M642.876-242.727H616.038V-257.5h26.838Z" transform="translate(-579.2 270.096)"/></g></g><g transform="translate(3.407 43.73)"><g class="dz"><g transform="translate(12.881 9.734)"><path class="ea" d="M0,40.635,5.53,0"/></g></g><g class="eb" transform="translate(24.632 39.681)"><g class="dz" transform="translate(-24.632 -39.681)"><path class="bt" d="M642.256-278.519H592.5v10.427h49.759Z" transform="translate(-570.242 315.824)"/></g></g><g class="dz"><g transform="translate(79.059 8.425)"><path class="ea" d="M5.83,40.594,0,0"/></g></g><g class="ec" transform="translate(3.767 0.238)"><g class="dz" transform="translate(-3.767 -0.238)"><path class="dx" d="M636.059-361.5h-95.14v110.4h95.14Z" transform="translate(-539.528 359.361)"/></g></g><g class="ed" transform="translate(3.767 0.238)"><g class="dz" transform="translate(-3.767 -0.238)"><path class="bx" d="M640.991-361.5H550.319v110.4h90.672Z" transform="translate(-548.929 359.36)"/></g></g><g class="ee" transform="translate(24.102 7.947)"><g class="dz" transform="translate(-24.102 -7.947)"><path class="bt" d="M677.332-345.281H658.34v29.248h18.992Z" transform="translate(-636.615 350.851)"/></g></g></g><g transform="translate(29.075)"><g class="ef"><g transform="translate(7.414 10.233)"><path class="eg" d="M.251,16.513V0" transform="translate(-0.251)"/></g></g><g class="eh" transform="translate(0.77 23.578)"><g class="ef" transform="translate(-0.77 -23.578)"><path class="bt" d="M674.842-405.4h-16.8v14.931h16.8Z" transform="translate(-659.653 426.598)"/></g></g><g class="ei" transform="translate(3.682 3.783)"><g class="ef" transform="translate(-3.682 -3.783)"><path class="dx" d="M641.433-447.042H599.921v45.721h41.511Z" transform="translate(-598.616 448.448)"/></g></g><g class="ej" transform="translate(10.768 5.254)"><g class="ef" transform="translate(-10.768 -5.254)"><path class="bx" d="M642.394-443.947H615.258v9.22h27.136Z" transform="translate(-606.867 446.824)"/></g></g><g class="ek" transform="translate(9.509 41.275)"><g class="ef" transform="translate(-9.509 -41.275)"><path class="bx" d="M641.753-368.165H611.638v8.228h30.116Z" transform="translate(-604.505 407.064)"/></g></g><g class="el" transform="translate(33.831 23.578)"><g class="ef" transform="translate(-33.831 -23.578)"><path class="bt" d="M605.288-405.4h-16.8v14.931h16.8Z" transform="translate(-557.038 426.598)"/></g></g><g class="em" transform="translate(7.414 21.62)"><g class="ef" transform="translate(-7.414 -21.62)"><path class="bt" d="M661.6-409.516h-16.13v18.846H661.6Z" transform="translate(-640.432 428.76)"/></g></g><g class="en" transform="translate(13.102 21.62)"><g class="ef" transform="translate(-13.102 -21.62)"><path class="bt" d="M659.239-409.516h-7.426v18.846h7.426Z" transform="translate(-641.087 428.76)"/></g></g><g class="eo" transform="translate(10.087 21.62)"><g class="ef" transform="translate(-10.087 -21.62)"><path class="ad" d="M655.975-409.516h-16.13v18.846h16.13Z" transform="translate(-632.135 428.76)"/></g></g><g class="ef"><g transform="translate(36.709 10.994)"><path class="eg" d="M.251,15.861V.108" transform="translate(-0.251 -0.108)"/></g></g><g class="ep" transform="translate(12.863 30.746)"><g class="ef" transform="translate(-12.863 -25.713)"><path class="bt" d="M658.272-400.906h-8.758v9.714h8.758Z" transform="translate(-639.027 424.242)"/></g></g></g></g><g transform="translate(1764.623 487.656)"><g class="eq" transform="translate(0)"><g class="er" transform="translate(-107.915 -8.753)"><path class="l" d="M1530.326-1316.561h119.632V-1112.1H1530.326Z" transform="translate(-1424.452 1323.272)"/></g></g><g transform="translate(37.293 78.678)"><g transform="translate(20.482)"><path class="es" d="M.429,0V154.627" transform="translate(-0.429)"/></g><g transform="translate(21.533 74.227)"><path class="es" d="M0,21.439,21.455,0"/></g><g transform="translate(21.183 13.368)"><path class="es" d="M0,13.322,13.332,0"/></g><g transform="translate(0 44.592)"><path class="es" d="M19.781,19.765,0,0"/></g></g></g><g transform="translate(1667.813 474.82)"><g class="et" transform="translate(0)"><g class="dq" transform="translate(-582.267 -304.565)"><path class="s" d="M1293.2-1348h118.4v231.078H1293.2Z" transform="translate(-712.975 1650.524)"/></g></g><g transform="translate(38.785 89.41)"><g transform="translate(17.759)"><path class="eu" d="M.5,0V163.306" transform="translate(-0.5)"/></g><g transform="translate(18.78 89.41)"><path class="eu" d="M0,20.821,20.821,0"/></g><g transform="translate(18.78 40.01)"><path class="eu" d="M0,10.615,10.615,0"/></g><g transform="translate(0 57.565)"><path class="eu" d="M16.739,16.739,0,0"/></g><g transform="translate(8.982 14.698)"><path class="eu" d="M8.165,8.165,0,0"/></g></g></g><g transform="translate(972.431 388.099)"><rect class="ev" width="112" height="51.276" transform="translate(964 380.724)"/><rect class="ew" width="112" height="14.875" transform="translate(964 365.848)"/><path class="ex" d="M0,0H7.193V47.332L0,51.276Z" transform="translate(1076 380.724)"/><path class="ey" d="M0,0,7.193,3.153V14.875H0Z" transform="translate(1076 365.848)"/></g></g></svg>